%TF.GenerationSoftware,KiCad,Pcbnew,5.1.12-84ad8e8a86~92~ubuntu16.04.1*%
%TF.CreationDate,2022-03-26T09:40:31-03:00*%
%TF.ProjectId,BaseAurora,42617365-4175-4726-9f72-612e6b696361,rev?*%
%TF.SameCoordinates,Original*%
%TF.FileFunction,Soldermask,Bot*%
%TF.FilePolarity,Negative*%
%FSLAX46Y46*%
G04 Gerber Fmt 4.6, Leading zero omitted, Abs format (unit mm)*
G04 Created by KiCad (PCBNEW 5.1.12-84ad8e8a86~92~ubuntu16.04.1) date 2022-03-26 09:40:31*
%MOMM*%
%LPD*%
G01*
G04 APERTURE LIST*
%ADD10C,2.600000*%
%ADD11R,2.600000X2.600000*%
%ADD12O,2.190000X1.740000*%
%ADD13C,1.700000*%
%ADD14O,1.740000X2.190000*%
%ADD15C,2.390000*%
%ADD16C,3.450000*%
%ADD17R,1.050000X1.500000*%
%ADD18O,1.050000X1.500000*%
%ADD19O,1.600000X1.600000*%
%ADD20R,1.600000X1.600000*%
%ADD21R,1.500000X1.050000*%
%ADD22O,1.500000X1.050000*%
%ADD23C,2.000000*%
%ADD24R,2.000000X2.000000*%
%ADD25C,3.000000*%
%ADD26C,1.800000*%
%ADD27R,1.800000X1.800000*%
%ADD28C,0.800000*%
%ADD29C,0.400000*%
%ADD30C,1.400000*%
%ADD31C,1.000000*%
G04 APERTURE END LIST*
D10*
%TO.C,J7*%
X241875000Y-27500000D03*
D11*
X246875000Y-27500000D03*
%TD*%
D12*
%TO.C,J2*%
X257250000Y-66410000D03*
X257250000Y-63870000D03*
X257250000Y-61330000D03*
X257250000Y-58790000D03*
G36*
G01*
X256404999Y-55380000D02*
X258095001Y-55380000D01*
G75*
G02*
X258345000Y-55629999I0J-249999D01*
G01*
X258345000Y-56870001D01*
G75*
G02*
X258095001Y-57120000I-249999J0D01*
G01*
X256404999Y-57120000D01*
G75*
G02*
X256155000Y-56870001I0J249999D01*
G01*
X256155000Y-55629999D01*
G75*
G02*
X256404999Y-55380000I249999J0D01*
G01*
G37*
%TD*%
%TO.C,J5*%
X257250000Y-50620000D03*
X257250000Y-48080000D03*
X257250000Y-45540000D03*
G36*
G01*
X256404999Y-42130000D02*
X258095001Y-42130000D01*
G75*
G02*
X258345000Y-42379999I0J-249999D01*
G01*
X258345000Y-43620001D01*
G75*
G02*
X258095001Y-43870000I-249999J0D01*
G01*
X256404999Y-43870000D01*
G75*
G02*
X256155000Y-43620001I0J249999D01*
G01*
X256155000Y-42379999D01*
G75*
G02*
X256404999Y-42130000I249999J0D01*
G01*
G37*
%TD*%
D13*
%TO.C,U2*%
X257330000Y-106250000D03*
X254790000Y-106250000D03*
X252250000Y-106250000D03*
X242790000Y-74750000D03*
X245330000Y-74750000D03*
X247870000Y-74750000D03*
X250410000Y-74750000D03*
X252950000Y-74750000D03*
X255490000Y-74750000D03*
X258030000Y-74750000D03*
%TD*%
D14*
%TO.C,J10*%
X248080000Y-69750000D03*
X245540000Y-69750000D03*
G36*
G01*
X242130000Y-70595001D02*
X242130000Y-68904999D01*
G75*
G02*
X242379999Y-68655000I249999J0D01*
G01*
X243620001Y-68655000D01*
G75*
G02*
X243870000Y-68904999I0J-249999D01*
G01*
X243870000Y-70595001D01*
G75*
G02*
X243620001Y-70845000I-249999J0D01*
G01*
X242379999Y-70845000D01*
G75*
G02*
X242130000Y-70595001I0J249999D01*
G01*
G37*
%TD*%
D15*
%TO.C,BT1*%
X210000000Y-36650000D03*
D16*
X194000000Y-44980000D03*
X210000000Y-100180000D03*
%TD*%
D13*
%TO.C,U4*%
X214805000Y-78700000D03*
X214805000Y-81240000D03*
X214805000Y-83780000D03*
X214805000Y-86320000D03*
X214805000Y-88860000D03*
X214805000Y-91400000D03*
X214805000Y-93940000D03*
X214805000Y-96480000D03*
X214805000Y-99020000D03*
X214805000Y-101560000D03*
X214805000Y-104100000D03*
X214805000Y-106640000D03*
X214805000Y-109180000D03*
X214805000Y-111720000D03*
X214805000Y-114260000D03*
X237560000Y-114260000D03*
X237560000Y-111720000D03*
X237560000Y-109180000D03*
X237560000Y-106640000D03*
X237560000Y-104100000D03*
X237560000Y-101560000D03*
X237560000Y-99020000D03*
X237560000Y-96480000D03*
X237560000Y-93940000D03*
X237560000Y-91400000D03*
X237560000Y-88860000D03*
X237560000Y-86320000D03*
X237560000Y-83780000D03*
X237560000Y-81240000D03*
X237560000Y-78700000D03*
%TD*%
D17*
%TO.C,Q2*%
X242250000Y-62500000D03*
D18*
X239710000Y-62500000D03*
X240980000Y-62500000D03*
%TD*%
D19*
%TO.C,U3*%
X228120000Y-52500000D03*
X220500000Y-57580000D03*
X228120000Y-55040000D03*
X220500000Y-55040000D03*
X228120000Y-57580000D03*
D20*
X220500000Y-52500000D03*
%TD*%
D21*
%TO.C,Q1*%
X216250000Y-64250000D03*
D22*
X216250000Y-61710000D03*
X216250000Y-62980000D03*
%TD*%
D23*
%TO.C,K1*%
X231590000Y-51250000D03*
X231590000Y-56330000D03*
X239210000Y-51250000D03*
D24*
X241750000Y-51250000D03*
D23*
X239210000Y-56330000D03*
X241750000Y-56330000D03*
%TD*%
D12*
%TO.C,J9*%
X232500000Y-61710000D03*
G36*
G01*
X233345001Y-65120000D02*
X231654999Y-65120000D01*
G75*
G02*
X231405000Y-64870001I0J249999D01*
G01*
X231405000Y-63629999D01*
G75*
G02*
X231654999Y-63380000I249999J0D01*
G01*
X233345001Y-63380000D01*
G75*
G02*
X233595000Y-63629999I0J-249999D01*
G01*
X233595000Y-64870001D01*
G75*
G02*
X233345001Y-65120000I-249999J0D01*
G01*
G37*
%TD*%
%TO.C,J8*%
X223690000Y-61710000D03*
G36*
G01*
X224535001Y-65120000D02*
X222844999Y-65120000D01*
G75*
G02*
X222595000Y-64870001I0J249999D01*
G01*
X222595000Y-63629999D01*
G75*
G02*
X222844999Y-63380000I249999J0D01*
G01*
X224535001Y-63380000D01*
G75*
G02*
X224785000Y-63629999I0J-249999D01*
G01*
X224785000Y-64870001D01*
G75*
G02*
X224535001Y-65120000I-249999J0D01*
G01*
G37*
%TD*%
%TO.C,J4*%
X250250000Y-50620000D03*
X250250000Y-48080000D03*
X250250000Y-45540000D03*
G36*
G01*
X249404999Y-42130000D02*
X251095001Y-42130000D01*
G75*
G02*
X251345000Y-42379999I0J-249999D01*
G01*
X251345000Y-43620001D01*
G75*
G02*
X251095001Y-43870000I-249999J0D01*
G01*
X249404999Y-43870000D01*
G75*
G02*
X249155000Y-43620001I0J249999D01*
G01*
X249155000Y-42379999D01*
G75*
G02*
X249404999Y-42130000I249999J0D01*
G01*
G37*
%TD*%
%TO.C,J1*%
X250000000Y-64620000D03*
X250000000Y-62080000D03*
X250000000Y-59540000D03*
G36*
G01*
X249154999Y-56130000D02*
X250845001Y-56130000D01*
G75*
G02*
X251095000Y-56379999I0J-249999D01*
G01*
X251095000Y-57620001D01*
G75*
G02*
X250845001Y-57870000I-249999J0D01*
G01*
X249154999Y-57870000D01*
G75*
G02*
X248905000Y-57620001I0J249999D01*
G01*
X248905000Y-56379999D01*
G75*
G02*
X249154999Y-56130000I249999J0D01*
G01*
G37*
%TD*%
D25*
%TO.C,F2*%
X243100000Y-42750000D03*
X220500000Y-42750000D03*
%TD*%
D26*
%TO.C,D4*%
X223710000Y-35500000D03*
D27*
X226250000Y-35500000D03*
%TD*%
D26*
%TO.C,D2*%
X253290000Y-116750000D03*
D27*
X250750000Y-116750000D03*
%TD*%
D26*
%TO.C,D1*%
X258540000Y-116750000D03*
D27*
X256000000Y-116750000D03*
%TD*%
D11*
%TO.C,J3*%
X214250000Y-27750000D03*
D10*
X209250000Y-27750000D03*
%TD*%
D11*
%TO.C,J6*%
X235750000Y-27500000D03*
D10*
X230750000Y-27500000D03*
%TD*%
%TO.C,J11*%
X253000000Y-27500000D03*
D11*
X258000000Y-27500000D03*
%TD*%
D28*
X245900000Y-67750000D03*
D29*
X229500000Y-67250000D03*
X222625001Y-30375001D03*
X227874999Y-30375001D03*
D30*
X196450000Y-27250000D03*
X201900000Y-27250000D03*
D31*
X218600000Y-37450000D03*
D30*
X238000000Y-65500000D03*
D28*
X233120001Y-34296250D03*
X234750000Y-66750000D03*
D30*
X215499999Y-40450001D03*
D28*
X219750000Y-69750000D03*
X235112500Y-34296250D03*
M02*
