%TF.GenerationSoftware,KiCad,Pcbnew,5.1.12-84ad8e8a86~92~ubuntu16.04.1*%
%TF.CreationDate,2022-03-26T09:40:31-03:00*%
%TF.ProjectId,BaseAurora,42617365-4175-4726-9f72-612e6b696361,rev?*%
%TF.SameCoordinates,Original*%
%TF.FileFunction,Legend,Top*%
%TF.FilePolarity,Positive*%
%FSLAX46Y46*%
G04 Gerber Fmt 4.6, Leading zero omitted, Abs format (unit mm)*
G04 Created by KiCad (PCBNEW 5.1.12-84ad8e8a86~92~ubuntu16.04.1) date 2022-03-26 09:40:31*
%MOMM*%
%LPD*%
G01*
G04 APERTURE LIST*
%ADD10C,0.150000*%
%ADD11C,0.125000*%
%ADD12C,0.120000*%
G04 APERTURE END LIST*
D10*
X212923809Y-41402380D02*
X213257142Y-42402380D01*
X213590476Y-41402380D01*
X213923809Y-41878571D02*
X214257142Y-41878571D01*
X214400000Y-42402380D02*
X213923809Y-42402380D01*
X213923809Y-41402380D01*
X214400000Y-41402380D01*
X214733333Y-42402380D02*
X215257142Y-41735714D01*
X214733333Y-41735714D02*
X215257142Y-42402380D01*
X215495238Y-41735714D02*
X215876190Y-41735714D01*
X215638095Y-41402380D02*
X215638095Y-42259523D01*
X215685714Y-42354761D01*
X215780952Y-42402380D01*
X215876190Y-42402380D01*
X217609523Y-38411904D02*
X218104761Y-38411904D01*
X217838095Y-38716666D01*
X217952380Y-38716666D01*
X218028571Y-38754761D01*
X218066666Y-38792857D01*
X218104761Y-38869047D01*
X218104761Y-39059523D01*
X218066666Y-39135714D01*
X218028571Y-39173809D01*
X217952380Y-39211904D01*
X217723809Y-39211904D01*
X217647619Y-39173809D01*
X217609523Y-39135714D01*
X218333333Y-38411904D02*
X218600000Y-39211904D01*
X218866666Y-38411904D01*
X219057142Y-38411904D02*
X219552380Y-38411904D01*
X219285714Y-38716666D01*
X219400000Y-38716666D01*
X219476190Y-38754761D01*
X219514285Y-38792857D01*
X219552380Y-38869047D01*
X219552380Y-39059523D01*
X219514285Y-39135714D01*
X219476190Y-39173809D01*
X219400000Y-39211904D01*
X219171428Y-39211904D01*
X219095238Y-39173809D01*
X219057142Y-39135714D01*
D11*
X235823809Y-34476190D02*
X235823809Y-33976190D01*
X236109523Y-34476190D01*
X236109523Y-33976190D01*
X236347619Y-34476190D02*
X236347619Y-34142857D01*
X236347619Y-33976190D02*
X236323809Y-34000000D01*
X236347619Y-34023809D01*
X236371428Y-34000000D01*
X236347619Y-33976190D01*
X236347619Y-34023809D01*
X236871428Y-34428571D02*
X236847619Y-34452380D01*
X236776190Y-34476190D01*
X236728571Y-34476190D01*
X236657142Y-34452380D01*
X236609523Y-34404761D01*
X236585714Y-34357142D01*
X236561904Y-34261904D01*
X236561904Y-34190476D01*
X236585714Y-34095238D01*
X236609523Y-34047619D01*
X236657142Y-34000000D01*
X236728571Y-33976190D01*
X236776190Y-33976190D01*
X236847619Y-34000000D01*
X236871428Y-34023809D01*
X237085714Y-34476190D02*
X237085714Y-34142857D01*
X237085714Y-34238095D02*
X237109523Y-34190476D01*
X237133333Y-34166666D01*
X237180952Y-34142857D01*
X237228571Y-34142857D01*
X237276190Y-34523809D02*
X237657142Y-34523809D01*
X237776190Y-34476190D02*
X237776190Y-33976190D01*
X237990476Y-34452380D02*
X238061904Y-34476190D01*
X238180952Y-34476190D01*
X238228571Y-34452380D01*
X238252380Y-34428571D01*
X238276190Y-34380952D01*
X238276190Y-34333333D01*
X238252380Y-34285714D01*
X238228571Y-34261904D01*
X238180952Y-34238095D01*
X238085714Y-34214285D01*
X238038095Y-34190476D01*
X238014285Y-34166666D01*
X237990476Y-34119047D01*
X237990476Y-34071428D01*
X238014285Y-34023809D01*
X238038095Y-34000000D01*
X238085714Y-33976190D01*
X238204761Y-33976190D01*
X238276190Y-34000000D01*
X238585714Y-33976190D02*
X238680952Y-33976190D01*
X238728571Y-34000000D01*
X238776190Y-34047619D01*
X238800000Y-34142857D01*
X238800000Y-34309523D01*
X238776190Y-34404761D01*
X238728571Y-34452380D01*
X238680952Y-34476190D01*
X238585714Y-34476190D01*
X238538095Y-34452380D01*
X238490476Y-34404761D01*
X238466666Y-34309523D01*
X238466666Y-34142857D01*
X238490476Y-34047619D01*
X238538095Y-34000000D01*
X238585714Y-33976190D01*
X229709523Y-34000000D02*
X229661904Y-33976190D01*
X229590476Y-33976190D01*
X229519047Y-34000000D01*
X229471428Y-34047619D01*
X229447619Y-34095238D01*
X229423809Y-34190476D01*
X229423809Y-34261904D01*
X229447619Y-34357142D01*
X229471428Y-34404761D01*
X229519047Y-34452380D01*
X229590476Y-34476190D01*
X229638095Y-34476190D01*
X229709523Y-34452380D01*
X229733333Y-34428571D01*
X229733333Y-34261904D01*
X229638095Y-34261904D01*
X229947619Y-34476190D02*
X229947619Y-33976190D01*
X230233333Y-34476190D01*
X230233333Y-33976190D01*
X230471428Y-34476190D02*
X230471428Y-33976190D01*
X230590476Y-33976190D01*
X230661904Y-34000000D01*
X230709523Y-34047619D01*
X230733333Y-34095238D01*
X230757142Y-34190476D01*
X230757142Y-34261904D01*
X230733333Y-34357142D01*
X230709523Y-34404761D01*
X230661904Y-34452380D01*
X230590476Y-34476190D01*
X230471428Y-34476190D01*
X230852380Y-34523809D02*
X231233333Y-34523809D01*
X231352380Y-34476190D02*
X231352380Y-33976190D01*
X231566666Y-34452380D02*
X231638095Y-34476190D01*
X231757142Y-34476190D01*
X231804761Y-34452380D01*
X231828571Y-34428571D01*
X231852380Y-34380952D01*
X231852380Y-34333333D01*
X231828571Y-34285714D01*
X231804761Y-34261904D01*
X231757142Y-34238095D01*
X231661904Y-34214285D01*
X231614285Y-34190476D01*
X231590476Y-34166666D01*
X231566666Y-34119047D01*
X231566666Y-34071428D01*
X231590476Y-34023809D01*
X231614285Y-34000000D01*
X231661904Y-33976190D01*
X231780952Y-33976190D01*
X231852380Y-34000000D01*
X232161904Y-33976190D02*
X232257142Y-33976190D01*
X232304761Y-34000000D01*
X232352380Y-34047619D01*
X232376190Y-34142857D01*
X232376190Y-34309523D01*
X232352380Y-34404761D01*
X232304761Y-34452380D01*
X232257142Y-34476190D01*
X232161904Y-34476190D01*
X232114285Y-34452380D01*
X232066666Y-34404761D01*
X232042857Y-34309523D01*
X232042857Y-34142857D01*
X232066666Y-34047619D01*
X232114285Y-34000000D01*
X232161904Y-33976190D01*
D10*
X200528571Y-25002380D02*
X200861904Y-26002380D01*
X201195238Y-25002380D01*
X201861904Y-25478571D02*
X202004761Y-25526190D01*
X202052380Y-25573809D01*
X202100000Y-25669047D01*
X202100000Y-25811904D01*
X202052380Y-25907142D01*
X202004761Y-25954761D01*
X201909523Y-26002380D01*
X201528571Y-26002380D01*
X201528571Y-25002380D01*
X201861904Y-25002380D01*
X201957142Y-25050000D01*
X202004761Y-25097619D01*
X202052380Y-25192857D01*
X202052380Y-25288095D01*
X202004761Y-25383333D01*
X201957142Y-25430952D01*
X201861904Y-25478571D01*
X201528571Y-25478571D01*
X202957142Y-26002380D02*
X202957142Y-25478571D01*
X202909523Y-25383333D01*
X202814285Y-25335714D01*
X202623809Y-25335714D01*
X202528571Y-25383333D01*
X202957142Y-25954761D02*
X202861904Y-26002380D01*
X202623809Y-26002380D01*
X202528571Y-25954761D01*
X202480952Y-25859523D01*
X202480952Y-25764285D01*
X202528571Y-25669047D01*
X202623809Y-25621428D01*
X202861904Y-25621428D01*
X202957142Y-25573809D01*
X203290476Y-25335714D02*
X203671428Y-25335714D01*
X203433333Y-25002380D02*
X203433333Y-25859523D01*
X203480952Y-25954761D01*
X203576190Y-26002380D01*
X203671428Y-26002380D01*
X195638095Y-25050000D02*
X195542857Y-25002380D01*
X195400000Y-25002380D01*
X195257142Y-25050000D01*
X195161904Y-25145238D01*
X195114285Y-25240476D01*
X195066666Y-25430952D01*
X195066666Y-25573809D01*
X195114285Y-25764285D01*
X195161904Y-25859523D01*
X195257142Y-25954761D01*
X195400000Y-26002380D01*
X195495238Y-26002380D01*
X195638095Y-25954761D01*
X195685714Y-25907142D01*
X195685714Y-25573809D01*
X195495238Y-25573809D01*
X196114285Y-26002380D02*
X196114285Y-25002380D01*
X196685714Y-26002380D01*
X196685714Y-25002380D01*
X197161904Y-26002380D02*
X197161904Y-25002380D01*
X197400000Y-25002380D01*
X197542857Y-25050000D01*
X197638095Y-25145238D01*
X197685714Y-25240476D01*
X197733333Y-25430952D01*
X197733333Y-25573809D01*
X197685714Y-25764285D01*
X197638095Y-25859523D01*
X197542857Y-25954761D01*
X197400000Y-26002380D01*
X197161904Y-26002380D01*
X192085595Y-116778571D02*
X192418928Y-116778571D01*
X192561785Y-117302380D02*
X192085595Y-117302380D01*
X192085595Y-116302380D01*
X192561785Y-116302380D01*
X193418928Y-116635714D02*
X193418928Y-117635714D01*
X193418928Y-117254761D02*
X193323690Y-117302380D01*
X193133214Y-117302380D01*
X193037976Y-117254761D01*
X192990357Y-117207142D01*
X192942738Y-117111904D01*
X192942738Y-116826190D01*
X192990357Y-116730952D01*
X193037976Y-116683333D01*
X193133214Y-116635714D01*
X193323690Y-116635714D01*
X193418928Y-116683333D01*
X194323690Y-116635714D02*
X194323690Y-117302380D01*
X193895119Y-116635714D02*
X193895119Y-117159523D01*
X193942738Y-117254761D01*
X194037976Y-117302380D01*
X194180833Y-117302380D01*
X194276071Y-117254761D01*
X194323690Y-117207142D01*
X194799880Y-117302380D02*
X194799880Y-116635714D01*
X194799880Y-116302380D02*
X194752261Y-116350000D01*
X194799880Y-116397619D01*
X194847500Y-116350000D01*
X194799880Y-116302380D01*
X194799880Y-116397619D01*
X195276071Y-116635714D02*
X195276071Y-117635714D01*
X195276071Y-116683333D02*
X195371309Y-116635714D01*
X195561785Y-116635714D01*
X195657023Y-116683333D01*
X195704642Y-116730952D01*
X195752261Y-116826190D01*
X195752261Y-117111904D01*
X195704642Y-117207142D01*
X195657023Y-117254761D01*
X195561785Y-117302380D01*
X195371309Y-117302380D01*
X195276071Y-117254761D01*
X196561785Y-117254761D02*
X196466547Y-117302380D01*
X196276071Y-117302380D01*
X196180833Y-117254761D01*
X196133214Y-117159523D01*
X196133214Y-116778571D01*
X196180833Y-116683333D01*
X196276071Y-116635714D01*
X196466547Y-116635714D01*
X196561785Y-116683333D01*
X196609404Y-116778571D01*
X196609404Y-116873809D01*
X196133214Y-116969047D01*
X197752261Y-117016666D02*
X198228452Y-117016666D01*
X197657023Y-117302380D02*
X197990357Y-116302380D01*
X198323690Y-117302380D01*
X198657023Y-116635714D02*
X198657023Y-117302380D01*
X198657023Y-116730952D02*
X198704642Y-116683333D01*
X198799880Y-116635714D01*
X198942738Y-116635714D01*
X199037976Y-116683333D01*
X199085595Y-116778571D01*
X199085595Y-117302380D01*
X199418928Y-116635714D02*
X199799880Y-116635714D01*
X199561785Y-116302380D02*
X199561785Y-117159523D01*
X199609404Y-117254761D01*
X199704642Y-117302380D01*
X199799880Y-117302380D01*
X200561785Y-117302380D02*
X200561785Y-116778571D01*
X200514166Y-116683333D01*
X200418928Y-116635714D01*
X200228452Y-116635714D01*
X200133214Y-116683333D01*
X200561785Y-117254761D02*
X200466547Y-117302380D01*
X200228452Y-117302380D01*
X200133214Y-117254761D01*
X200085595Y-117159523D01*
X200085595Y-117064285D01*
X200133214Y-116969047D01*
X200228452Y-116921428D01*
X200466547Y-116921428D01*
X200561785Y-116873809D01*
X201037976Y-117302380D02*
X201037976Y-116635714D01*
X201037976Y-116826190D02*
X201085595Y-116730952D01*
X201133214Y-116683333D01*
X201228452Y-116635714D01*
X201323690Y-116635714D01*
X202037976Y-117254761D02*
X201942738Y-117302380D01*
X201752261Y-117302380D01*
X201657023Y-117254761D01*
X201609404Y-117159523D01*
X201609404Y-116778571D01*
X201657023Y-116683333D01*
X201752261Y-116635714D01*
X201942738Y-116635714D01*
X202037976Y-116683333D01*
X202085595Y-116778571D01*
X202085595Y-116873809D01*
X201609404Y-116969047D01*
X202466547Y-117254761D02*
X202561785Y-117302380D01*
X202752261Y-117302380D01*
X202847500Y-117254761D01*
X202895119Y-117159523D01*
X202895119Y-117111904D01*
X202847500Y-117016666D01*
X202752261Y-116969047D01*
X202609404Y-116969047D01*
X202514166Y-116921428D01*
X202466547Y-116826190D01*
X202466547Y-116778571D01*
X202514166Y-116683333D01*
X202609404Y-116635714D01*
X202752261Y-116635714D01*
X202847500Y-116683333D01*
X204276071Y-116302380D02*
X204371309Y-116302380D01*
X204466547Y-116350000D01*
X204514166Y-116397619D01*
X204561785Y-116492857D01*
X204609404Y-116683333D01*
X204609404Y-116921428D01*
X204561785Y-117111904D01*
X204514166Y-117207142D01*
X204466547Y-117254761D01*
X204371309Y-117302380D01*
X204276071Y-117302380D01*
X204180833Y-117254761D01*
X204133214Y-117207142D01*
X204085595Y-117111904D01*
X204037976Y-116921428D01*
X204037976Y-116683333D01*
X204085595Y-116492857D01*
X204133214Y-116397619D01*
X204180833Y-116350000D01*
X204276071Y-116302380D01*
X204942738Y-116302380D02*
X205561785Y-116302380D01*
X205228452Y-116683333D01*
X205371309Y-116683333D01*
X205466547Y-116730952D01*
X205514166Y-116778571D01*
X205561785Y-116873809D01*
X205561785Y-117111904D01*
X205514166Y-117207142D01*
X205466547Y-117254761D01*
X205371309Y-117302380D01*
X205085595Y-117302380D01*
X204990357Y-117254761D01*
X204942738Y-117207142D01*
X206704642Y-116254761D02*
X205847500Y-117540476D01*
X206990357Y-116397619D02*
X207037976Y-116350000D01*
X207133214Y-116302380D01*
X207371309Y-116302380D01*
X207466547Y-116350000D01*
X207514166Y-116397619D01*
X207561785Y-116492857D01*
X207561785Y-116588095D01*
X207514166Y-116730952D01*
X206942738Y-117302380D01*
X207561785Y-117302380D01*
X208180833Y-116302380D02*
X208276071Y-116302380D01*
X208371309Y-116350000D01*
X208418928Y-116397619D01*
X208466547Y-116492857D01*
X208514166Y-116683333D01*
X208514166Y-116921428D01*
X208466547Y-117111904D01*
X208418928Y-117207142D01*
X208371309Y-117254761D01*
X208276071Y-117302380D01*
X208180833Y-117302380D01*
X208085595Y-117254761D01*
X208037976Y-117207142D01*
X207990357Y-117111904D01*
X207942738Y-116921428D01*
X207942738Y-116683333D01*
X207990357Y-116492857D01*
X208037976Y-116397619D01*
X208085595Y-116350000D01*
X208180833Y-116302380D01*
X208895119Y-116397619D02*
X208942738Y-116350000D01*
X209037976Y-116302380D01*
X209276071Y-116302380D01*
X209371309Y-116350000D01*
X209418928Y-116397619D01*
X209466547Y-116492857D01*
X209466547Y-116588095D01*
X209418928Y-116730952D01*
X208847500Y-117302380D01*
X209466547Y-117302380D01*
X209847500Y-116397619D02*
X209895119Y-116350000D01*
X209990357Y-116302380D01*
X210228452Y-116302380D01*
X210323690Y-116350000D01*
X210371309Y-116397619D01*
X210418928Y-116492857D01*
X210418928Y-116588095D01*
X210371309Y-116730952D01*
X209799880Y-117302380D01*
X210418928Y-117302380D01*
X192085595Y-118952380D02*
X192085595Y-117952380D01*
X192466547Y-117952380D01*
X192561785Y-118000000D01*
X192609404Y-118047619D01*
X192657023Y-118142857D01*
X192657023Y-118285714D01*
X192609404Y-118380952D01*
X192561785Y-118428571D01*
X192466547Y-118476190D01*
X192085595Y-118476190D01*
X193228452Y-118952380D02*
X193133214Y-118904761D01*
X193085595Y-118809523D01*
X193085595Y-117952380D01*
X194037976Y-118952380D02*
X194037976Y-118428571D01*
X193990357Y-118333333D01*
X193895119Y-118285714D01*
X193704642Y-118285714D01*
X193609404Y-118333333D01*
X194037976Y-118904761D02*
X193942738Y-118952380D01*
X193704642Y-118952380D01*
X193609404Y-118904761D01*
X193561785Y-118809523D01*
X193561785Y-118714285D01*
X193609404Y-118619047D01*
X193704642Y-118571428D01*
X193942738Y-118571428D01*
X194037976Y-118523809D01*
X194942738Y-118904761D02*
X194847500Y-118952380D01*
X194657023Y-118952380D01*
X194561785Y-118904761D01*
X194514166Y-118857142D01*
X194466547Y-118761904D01*
X194466547Y-118476190D01*
X194514166Y-118380952D01*
X194561785Y-118333333D01*
X194657023Y-118285714D01*
X194847500Y-118285714D01*
X194942738Y-118333333D01*
X195799880Y-118952380D02*
X195799880Y-118428571D01*
X195752261Y-118333333D01*
X195657023Y-118285714D01*
X195466547Y-118285714D01*
X195371309Y-118333333D01*
X195799880Y-118904761D02*
X195704642Y-118952380D01*
X195466547Y-118952380D01*
X195371309Y-118904761D01*
X195323690Y-118809523D01*
X195323690Y-118714285D01*
X195371309Y-118619047D01*
X195466547Y-118571428D01*
X195704642Y-118571428D01*
X195799880Y-118523809D01*
X197466547Y-118952380D02*
X197466547Y-117952380D01*
X197466547Y-118904761D02*
X197371309Y-118952380D01*
X197180833Y-118952380D01*
X197085595Y-118904761D01*
X197037976Y-118857142D01*
X196990357Y-118761904D01*
X196990357Y-118476190D01*
X197037976Y-118380952D01*
X197085595Y-118333333D01*
X197180833Y-118285714D01*
X197371309Y-118285714D01*
X197466547Y-118333333D01*
X198323690Y-118904761D02*
X198228452Y-118952380D01*
X198037976Y-118952380D01*
X197942738Y-118904761D01*
X197895119Y-118809523D01*
X197895119Y-118428571D01*
X197942738Y-118333333D01*
X198037976Y-118285714D01*
X198228452Y-118285714D01*
X198323690Y-118333333D01*
X198371309Y-118428571D01*
X198371309Y-118523809D01*
X197895119Y-118619047D01*
X199514166Y-118666666D02*
X199990357Y-118666666D01*
X199418928Y-118952380D02*
X199752261Y-117952380D01*
X200085595Y-118952380D01*
X200847500Y-118904761D02*
X200752261Y-118952380D01*
X200561785Y-118952380D01*
X200466547Y-118904761D01*
X200418928Y-118857142D01*
X200371309Y-118761904D01*
X200371309Y-118476190D01*
X200418928Y-118380952D01*
X200466547Y-118333333D01*
X200561785Y-118285714D01*
X200752261Y-118285714D01*
X200847500Y-118333333D01*
X201276071Y-118952380D02*
X201276071Y-118285714D01*
X201276071Y-117952380D02*
X201228452Y-118000000D01*
X201276071Y-118047619D01*
X201323690Y-118000000D01*
X201276071Y-117952380D01*
X201276071Y-118047619D01*
X201895119Y-118952380D02*
X201799880Y-118904761D01*
X201752261Y-118857142D01*
X201704642Y-118761904D01*
X201704642Y-118476190D01*
X201752261Y-118380952D01*
X201799880Y-118333333D01*
X201895119Y-118285714D01*
X202037976Y-118285714D01*
X202133214Y-118333333D01*
X202180833Y-118380952D01*
X202228452Y-118476190D01*
X202228452Y-118761904D01*
X202180833Y-118857142D01*
X202133214Y-118904761D01*
X202037976Y-118952380D01*
X201895119Y-118952380D01*
X202657023Y-118285714D02*
X202657023Y-118952380D01*
X202657023Y-118380952D02*
X202704642Y-118333333D01*
X202799880Y-118285714D01*
X202942738Y-118285714D01*
X203037976Y-118333333D01*
X203085595Y-118428571D01*
X203085595Y-118952380D01*
X203990357Y-118952380D02*
X203990357Y-118428571D01*
X203942738Y-118333333D01*
X203847500Y-118285714D01*
X203657023Y-118285714D01*
X203561785Y-118333333D01*
X203990357Y-118904761D02*
X203895119Y-118952380D01*
X203657023Y-118952380D01*
X203561785Y-118904761D01*
X203514166Y-118809523D01*
X203514166Y-118714285D01*
X203561785Y-118619047D01*
X203657023Y-118571428D01*
X203895119Y-118571428D01*
X203990357Y-118523809D01*
X204466547Y-118952380D02*
X204466547Y-118285714D01*
X204466547Y-118380952D02*
X204514166Y-118333333D01*
X204609404Y-118285714D01*
X204752261Y-118285714D01*
X204847500Y-118333333D01*
X204895119Y-118428571D01*
X204895119Y-118952380D01*
X204895119Y-118428571D02*
X204942738Y-118333333D01*
X205037976Y-118285714D01*
X205180833Y-118285714D01*
X205276071Y-118333333D01*
X205323690Y-118428571D01*
X205323690Y-118952380D01*
X206180833Y-118904761D02*
X206085595Y-118952380D01*
X205895119Y-118952380D01*
X205799880Y-118904761D01*
X205752261Y-118809523D01*
X205752261Y-118428571D01*
X205799880Y-118333333D01*
X205895119Y-118285714D01*
X206085595Y-118285714D01*
X206180833Y-118333333D01*
X206228452Y-118428571D01*
X206228452Y-118523809D01*
X205752261Y-118619047D01*
X206657023Y-118285714D02*
X206657023Y-118952380D01*
X206657023Y-118380952D02*
X206704642Y-118333333D01*
X206799880Y-118285714D01*
X206942738Y-118285714D01*
X207037976Y-118333333D01*
X207085595Y-118428571D01*
X207085595Y-118952380D01*
X207418928Y-118285714D02*
X207799880Y-118285714D01*
X207561785Y-117952380D02*
X207561785Y-118809523D01*
X207609404Y-118904761D01*
X207704642Y-118952380D01*
X207799880Y-118952380D01*
X208276071Y-118952380D02*
X208180833Y-118904761D01*
X208133214Y-118857142D01*
X208085595Y-118761904D01*
X208085595Y-118476190D01*
X208133214Y-118380952D01*
X208180833Y-118333333D01*
X208276071Y-118285714D01*
X208418928Y-118285714D01*
X208514166Y-118333333D01*
X208561785Y-118380952D01*
X208609404Y-118476190D01*
X208609404Y-118761904D01*
X208561785Y-118857142D01*
X208514166Y-118904761D01*
X208418928Y-118952380D01*
X208276071Y-118952380D01*
X209657023Y-117952380D02*
X209990357Y-118952380D01*
X210323690Y-117952380D01*
X211180833Y-118952380D02*
X210609404Y-118952380D01*
X210895119Y-118952380D02*
X210895119Y-117952380D01*
X210799880Y-118095238D01*
X210704642Y-118190476D01*
X210609404Y-118238095D01*
X211609404Y-118857142D02*
X211657023Y-118904761D01*
X211609404Y-118952380D01*
X211561785Y-118904761D01*
X211609404Y-118857142D01*
X211609404Y-118952380D01*
X212276071Y-117952380D02*
X212371309Y-117952380D01*
X212466547Y-118000000D01*
X212514166Y-118047619D01*
X212561785Y-118142857D01*
X212609404Y-118333333D01*
X212609404Y-118571428D01*
X212561785Y-118761904D01*
X212514166Y-118857142D01*
X212466547Y-118904761D01*
X212371309Y-118952380D01*
X212276071Y-118952380D01*
X212180833Y-118904761D01*
X212133214Y-118857142D01*
X212085595Y-118761904D01*
X212037976Y-118571428D01*
X212037976Y-118333333D01*
X212085595Y-118142857D01*
X212133214Y-118047619D01*
X212180833Y-118000000D01*
X212276071Y-117952380D01*
X192609404Y-119650000D02*
X192514166Y-119602380D01*
X192371309Y-119602380D01*
X192228452Y-119650000D01*
X192133214Y-119745238D01*
X192085595Y-119840476D01*
X192037976Y-120030952D01*
X192037976Y-120173809D01*
X192085595Y-120364285D01*
X192133214Y-120459523D01*
X192228452Y-120554761D01*
X192371309Y-120602380D01*
X192466547Y-120602380D01*
X192609404Y-120554761D01*
X192657023Y-120507142D01*
X192657023Y-120173809D01*
X192466547Y-120173809D01*
X193085595Y-120507142D02*
X193133214Y-120554761D01*
X193085595Y-120602380D01*
X193037976Y-120554761D01*
X193085595Y-120507142D01*
X193085595Y-120602380D01*
X194895119Y-120602380D02*
X194561785Y-120126190D01*
X194323690Y-120602380D02*
X194323690Y-119602380D01*
X194704642Y-119602380D01*
X194799880Y-119650000D01*
X194847500Y-119697619D01*
X194895119Y-119792857D01*
X194895119Y-119935714D01*
X194847500Y-120030952D01*
X194799880Y-120078571D01*
X194704642Y-120126190D01*
X194323690Y-120126190D01*
X195704642Y-120554761D02*
X195609404Y-120602380D01*
X195418928Y-120602380D01*
X195323690Y-120554761D01*
X195276071Y-120459523D01*
X195276071Y-120078571D01*
X195323690Y-119983333D01*
X195418928Y-119935714D01*
X195609404Y-119935714D01*
X195704642Y-119983333D01*
X195752261Y-120078571D01*
X195752261Y-120173809D01*
X195276071Y-120269047D01*
X196180833Y-120602380D02*
X196180833Y-119935714D01*
X196180833Y-119602380D02*
X196133214Y-119650000D01*
X196180833Y-119697619D01*
X196228452Y-119650000D01*
X196180833Y-119602380D01*
X196180833Y-119697619D01*
X196609404Y-120554761D02*
X196704642Y-120602380D01*
X196895119Y-120602380D01*
X196990357Y-120554761D01*
X197037976Y-120459523D01*
X197037976Y-120411904D01*
X196990357Y-120316666D01*
X196895119Y-120269047D01*
X196752261Y-120269047D01*
X196657023Y-120221428D01*
X196609404Y-120126190D01*
X196609404Y-120078571D01*
X196657023Y-119983333D01*
X196752261Y-119935714D01*
X196895119Y-119935714D01*
X196990357Y-119983333D01*
D12*
%TO.C,J7*%
X243555000Y-27500000D02*
G75*
G03*
X243555000Y-27500000I-1680000J0D01*
G01*
X249435000Y-23400000D02*
X239315000Y-23400000D01*
X249435000Y-24900000D02*
X239315000Y-24900000D01*
X249435000Y-29801000D02*
X239315000Y-29801000D01*
X249435000Y-32761000D02*
X239315000Y-32761000D01*
X249435000Y-22840000D02*
X239315000Y-22840000D01*
X249435000Y-32761000D02*
X249435000Y-22840000D01*
X239315000Y-32761000D02*
X239315000Y-22840000D01*
X240600000Y-28569000D02*
X240647000Y-28523000D01*
X242909000Y-26261000D02*
X242944000Y-26226000D01*
X240805000Y-28775000D02*
X240840000Y-28739000D01*
X243102000Y-26477000D02*
X243149000Y-26431000D01*
X249675000Y-23340000D02*
X249675000Y-22600000D01*
X249675000Y-22600000D02*
X249175000Y-22600000D01*
X246846195Y-25819747D02*
G75*
G02*
X247559000Y-25965000I28805J-1680253D01*
G01*
X248410426Y-26816958D02*
G75*
G02*
X248410000Y-28184000I-1535426J-683042D01*
G01*
X247558042Y-29035426D02*
G75*
G02*
X246191000Y-29035000I-683042J1535426D01*
G01*
X245339574Y-28183042D02*
G75*
G02*
X245340000Y-26816000I1535426J683042D01*
G01*
X246191682Y-25965244D02*
G75*
G02*
X246875000Y-25820000I683318J-1534756D01*
G01*
%TO.C,J2*%
X259680000Y-67210000D02*
X260280000Y-67210000D01*
X259680000Y-65610000D02*
X259680000Y-67210000D01*
X260280000Y-65610000D02*
X259680000Y-65610000D01*
X259680000Y-64670000D02*
X260280000Y-64670000D01*
X259680000Y-63070000D02*
X259680000Y-64670000D01*
X260280000Y-63070000D02*
X259680000Y-63070000D01*
X259680000Y-62130000D02*
X260280000Y-62130000D01*
X259680000Y-60530000D02*
X259680000Y-62130000D01*
X260280000Y-60530000D02*
X259680000Y-60530000D01*
X259680000Y-59590000D02*
X260280000Y-59590000D01*
X259680000Y-57990000D02*
X259680000Y-59590000D01*
X260280000Y-57990000D02*
X259680000Y-57990000D01*
X259680000Y-57050000D02*
X260280000Y-57050000D01*
X259680000Y-55450000D02*
X259680000Y-57050000D01*
X260280000Y-55450000D02*
X259680000Y-55450000D01*
X254260000Y-66160000D02*
X255260000Y-66160000D01*
X254260000Y-56500000D02*
X255260000Y-56500000D01*
X255790000Y-66160000D02*
X255260000Y-66410000D01*
X255790000Y-56500000D02*
X255790000Y-66160000D01*
X255260000Y-56250000D02*
X255790000Y-56500000D01*
X255260000Y-66410000D02*
X254260000Y-66410000D01*
X255260000Y-56250000D02*
X255260000Y-66410000D01*
X254260000Y-56250000D02*
X255260000Y-56250000D01*
X259250000Y-54580000D02*
X255250000Y-54580000D01*
X260280000Y-67790000D02*
X260280000Y-54870000D01*
X254260000Y-67790000D02*
X260280000Y-67790000D01*
X254260000Y-54870000D02*
X254260000Y-67790000D01*
X260280000Y-54870000D02*
X254260000Y-54870000D01*
%TO.C,J5*%
X259680000Y-51420000D02*
X260280000Y-51420000D01*
X259680000Y-49820000D02*
X259680000Y-51420000D01*
X260280000Y-49820000D02*
X259680000Y-49820000D01*
X259680000Y-48880000D02*
X260280000Y-48880000D01*
X259680000Y-47280000D02*
X259680000Y-48880000D01*
X260280000Y-47280000D02*
X259680000Y-47280000D01*
X259680000Y-46340000D02*
X260280000Y-46340000D01*
X259680000Y-44740000D02*
X259680000Y-46340000D01*
X260280000Y-44740000D02*
X259680000Y-44740000D01*
X259680000Y-43800000D02*
X260280000Y-43800000D01*
X259680000Y-42200000D02*
X259680000Y-43800000D01*
X260280000Y-42200000D02*
X259680000Y-42200000D01*
X254260000Y-50370000D02*
X255260000Y-50370000D01*
X254260000Y-43250000D02*
X255260000Y-43250000D01*
X255790000Y-50370000D02*
X255260000Y-50620000D01*
X255790000Y-43250000D02*
X255790000Y-50370000D01*
X255260000Y-43000000D02*
X255790000Y-43250000D01*
X255260000Y-50620000D02*
X254260000Y-50620000D01*
X255260000Y-43000000D02*
X255260000Y-50620000D01*
X254260000Y-43000000D02*
X255260000Y-43000000D01*
X259250000Y-41330000D02*
X255250000Y-41330000D01*
X260280000Y-52000000D02*
X260280000Y-41620000D01*
X254260000Y-52000000D02*
X260280000Y-52000000D01*
X254260000Y-41620000D02*
X254260000Y-52000000D01*
X260280000Y-41620000D02*
X254260000Y-41620000D01*
%TO.C,U2*%
X260830000Y-109250000D02*
X260830000Y-73250000D01*
X239830000Y-109250000D02*
X260830000Y-109250000D01*
X239830000Y-73250000D02*
X239830000Y-109250000D01*
X260830000Y-73250000D02*
X239830000Y-73250000D01*
X247830000Y-105250000D02*
X247830000Y-120250000D01*
X247830000Y-120250000D02*
X241830000Y-120250000D01*
X241830000Y-120250000D02*
X241830000Y-105250000D01*
X241830000Y-105250000D02*
X247830000Y-105250000D01*
%TO.C,J10*%
X248880000Y-67320000D02*
X248880000Y-66720000D01*
X247280000Y-67320000D02*
X248880000Y-67320000D01*
X247280000Y-66720000D02*
X247280000Y-67320000D01*
X246340000Y-67320000D02*
X246340000Y-66720000D01*
X244740000Y-67320000D02*
X246340000Y-67320000D01*
X244740000Y-66720000D02*
X244740000Y-67320000D01*
X243800000Y-67320000D02*
X243800000Y-66720000D01*
X242200000Y-67320000D02*
X243800000Y-67320000D01*
X242200000Y-66720000D02*
X242200000Y-67320000D01*
X247830000Y-72740000D02*
X247830000Y-71740000D01*
X243250000Y-72740000D02*
X243250000Y-71740000D01*
X247830000Y-71210000D02*
X248080000Y-71740000D01*
X243250000Y-71210000D02*
X247830000Y-71210000D01*
X243000000Y-71740000D02*
X243250000Y-71210000D01*
X248080000Y-71740000D02*
X248080000Y-72740000D01*
X243000000Y-71740000D02*
X248080000Y-71740000D01*
X243000000Y-72740000D02*
X243000000Y-71740000D01*
X241330000Y-67750000D02*
X241330000Y-71750000D01*
X249460000Y-66720000D02*
X241620000Y-66720000D01*
X249460000Y-72740000D02*
X249460000Y-66720000D01*
X241620000Y-72740000D02*
X249460000Y-72740000D01*
X241620000Y-66720000D02*
X241620000Y-72740000D01*
%TO.C,BT1*%
X206750000Y-30080000D02*
X209250000Y-30080000D01*
X208000000Y-28830000D02*
X208000000Y-31330000D01*
X208000000Y-116330000D02*
X208000000Y-113830000D01*
X205440000Y-111220000D02*
X212420000Y-111220000D01*
X212440000Y-111220000D02*
X212440000Y-33940000D01*
X212440000Y-33940000D02*
X205440000Y-33940000D01*
X198560000Y-111220000D02*
X191560000Y-111220000D01*
X191560000Y-111220000D02*
X191560000Y-33940000D01*
X191560000Y-33940000D02*
X198560000Y-33940000D01*
X205440000Y-33940000D02*
X205440000Y-29580000D01*
D10*
%TO.C,U4*%
X237930000Y-72350000D02*
X213800000Y-72350000D01*
X238456051Y-74890000D02*
G75*
G03*
X238456051Y-74890000I-1796051J0D01*
G01*
X217501051Y-74890000D02*
G75*
G03*
X217501051Y-74890000I-1796051J0D01*
G01*
X217501051Y-118070000D02*
G75*
G03*
X217501051Y-118070000I-1796051J0D01*
G01*
X238456051Y-118070000D02*
G75*
G03*
X238456051Y-118070000I-1796051J0D01*
G01*
X222690000Y-120610000D02*
X214435000Y-120610000D01*
X213165000Y-73620000D02*
X213165000Y-119340000D01*
X239200000Y-73620000D02*
X239200000Y-119340000D01*
X230300000Y-121610000D02*
X222700000Y-121610000D01*
X230300000Y-115880000D02*
X230300000Y-121610000D01*
X222700000Y-115880000D02*
X230300000Y-115880000D01*
X222700000Y-121610000D02*
X222700000Y-115880000D01*
X221000000Y-79480000D02*
X221000000Y-72350000D01*
X232000000Y-72350000D02*
X232000000Y-79480000D01*
X232000000Y-79480000D02*
X221000000Y-79480000D01*
X237930000Y-120610000D02*
X230310000Y-120610000D01*
X214435000Y-72350000D02*
G75*
G03*
X213165000Y-73620000I0J-1270000D01*
G01*
X239200000Y-73620000D02*
G75*
G03*
X237930000Y-72350000I-1270000J0D01*
G01*
X237930000Y-120610000D02*
G75*
G03*
X239200000Y-119340000I0J1270000D01*
G01*
X213165000Y-119340000D02*
G75*
G03*
X214435000Y-120610000I1270000J0D01*
G01*
D12*
%TO.C,R1*%
X226592064Y-68265000D02*
X226137936Y-68265000D01*
X226592064Y-69735000D02*
X226137936Y-69735000D01*
%TO.C,C1*%
X229988748Y-69735000D02*
X230511252Y-69735000D01*
X229988748Y-68265000D02*
X230511252Y-68265000D01*
%TO.C,Q2*%
X242780000Y-60650000D02*
X239180000Y-60650000D01*
X239141522Y-60661522D02*
G75*
G03*
X240980000Y-65100000I1838478J-1838478D01*
G01*
X242818478Y-60661522D02*
G75*
G02*
X240980000Y-65100000I-1838478J-1838478D01*
G01*
%TO.C,U3*%
X226960000Y-51170000D02*
X225310000Y-51170000D01*
X226960000Y-58910000D02*
X226960000Y-51170000D01*
X221660000Y-58910000D02*
X226960000Y-58910000D01*
X221660000Y-51170000D02*
X221660000Y-58910000D01*
X223310000Y-51170000D02*
X221660000Y-51170000D01*
X225310000Y-51170000D02*
G75*
G02*
X223310000Y-51170000I-1000000J0D01*
G01*
%TO.C,U1*%
X219350000Y-32110000D02*
X221800000Y-32110000D01*
X221150000Y-28890000D02*
X219350000Y-28890000D01*
%TO.C,Q1*%
X218100000Y-64780000D02*
X218100000Y-61180000D01*
X218088478Y-61141522D02*
G75*
G03*
X213650000Y-62980000I-1838478J-1838478D01*
G01*
X218088478Y-64818478D02*
G75*
G02*
X213650000Y-62980000I-1838478J1838478D01*
G01*
%TO.C,K1*%
X237940000Y-54577000D02*
X236924000Y-54577000D01*
X236924000Y-52672000D02*
X236924000Y-54577000D01*
X237940000Y-52672000D02*
X236924000Y-52672000D01*
X237940000Y-54577000D02*
X237940000Y-52672000D01*
X237432000Y-55212000D02*
X237432000Y-54577000D01*
X238067000Y-55212000D02*
X237432000Y-55212000D01*
X237432000Y-52012000D02*
X237432000Y-52672000D01*
X238067000Y-52012000D02*
X237432000Y-52012000D01*
X237940000Y-54196000D02*
X236924000Y-53561000D01*
X243050000Y-49850000D02*
X243050000Y-57650000D01*
X243050000Y-57650000D02*
X230350000Y-57650000D01*
X230350000Y-57650000D02*
X230350000Y-49850000D01*
X230350000Y-49850000D02*
X243050000Y-49850000D01*
X241150000Y-49650000D02*
X243250000Y-49650000D01*
X243250000Y-49650000D02*
X243250000Y-51850000D01*
%TO.C,J9*%
X230070000Y-60910000D02*
X229470000Y-60910000D01*
X230070000Y-62510000D02*
X230070000Y-60910000D01*
X229470000Y-62510000D02*
X230070000Y-62510000D01*
X230070000Y-63450000D02*
X229470000Y-63450000D01*
X230070000Y-65050000D02*
X230070000Y-63450000D01*
X229470000Y-65050000D02*
X230070000Y-65050000D01*
X235490000Y-61960000D02*
X234490000Y-61960000D01*
X235490000Y-64000000D02*
X234490000Y-64000000D01*
X233960000Y-61960000D02*
X234490000Y-61710000D01*
X233960000Y-64000000D02*
X233960000Y-61960000D01*
X234490000Y-64250000D02*
X233960000Y-64000000D01*
X234490000Y-61710000D02*
X235490000Y-61710000D01*
X234490000Y-64250000D02*
X234490000Y-61710000D01*
X235490000Y-64250000D02*
X234490000Y-64250000D01*
X230500000Y-65920000D02*
X234500000Y-65920000D01*
X229470000Y-60330000D02*
X229470000Y-65630000D01*
X235490000Y-60330000D02*
X229470000Y-60330000D01*
X235490000Y-65630000D02*
X235490000Y-60330000D01*
X229470000Y-65630000D02*
X235490000Y-65630000D01*
%TO.C,J8*%
X221260000Y-60910000D02*
X220660000Y-60910000D01*
X221260000Y-62510000D02*
X221260000Y-60910000D01*
X220660000Y-62510000D02*
X221260000Y-62510000D01*
X221260000Y-63450000D02*
X220660000Y-63450000D01*
X221260000Y-65050000D02*
X221260000Y-63450000D01*
X220660000Y-65050000D02*
X221260000Y-65050000D01*
X226680000Y-61960000D02*
X225680000Y-61960000D01*
X226680000Y-64000000D02*
X225680000Y-64000000D01*
X225150000Y-61960000D02*
X225680000Y-61710000D01*
X225150000Y-64000000D02*
X225150000Y-61960000D01*
X225680000Y-64250000D02*
X225150000Y-64000000D01*
X225680000Y-61710000D02*
X226680000Y-61710000D01*
X225680000Y-64250000D02*
X225680000Y-61710000D01*
X226680000Y-64250000D02*
X225680000Y-64250000D01*
X221690000Y-65920000D02*
X225690000Y-65920000D01*
X220660000Y-60330000D02*
X220660000Y-65630000D01*
X226680000Y-60330000D02*
X220660000Y-60330000D01*
X226680000Y-65630000D02*
X226680000Y-60330000D01*
X220660000Y-65630000D02*
X226680000Y-65630000D01*
%TO.C,J4*%
X252680000Y-51420000D02*
X253280000Y-51420000D01*
X252680000Y-49820000D02*
X252680000Y-51420000D01*
X253280000Y-49820000D02*
X252680000Y-49820000D01*
X252680000Y-48880000D02*
X253280000Y-48880000D01*
X252680000Y-47280000D02*
X252680000Y-48880000D01*
X253280000Y-47280000D02*
X252680000Y-47280000D01*
X252680000Y-46340000D02*
X253280000Y-46340000D01*
X252680000Y-44740000D02*
X252680000Y-46340000D01*
X253280000Y-44740000D02*
X252680000Y-44740000D01*
X252680000Y-43800000D02*
X253280000Y-43800000D01*
X252680000Y-42200000D02*
X252680000Y-43800000D01*
X253280000Y-42200000D02*
X252680000Y-42200000D01*
X247260000Y-50370000D02*
X248260000Y-50370000D01*
X247260000Y-43250000D02*
X248260000Y-43250000D01*
X248790000Y-50370000D02*
X248260000Y-50620000D01*
X248790000Y-43250000D02*
X248790000Y-50370000D01*
X248260000Y-43000000D02*
X248790000Y-43250000D01*
X248260000Y-50620000D02*
X247260000Y-50620000D01*
X248260000Y-43000000D02*
X248260000Y-50620000D01*
X247260000Y-43000000D02*
X248260000Y-43000000D01*
X252250000Y-41330000D02*
X248250000Y-41330000D01*
X253280000Y-52000000D02*
X253280000Y-41620000D01*
X247260000Y-52000000D02*
X253280000Y-52000000D01*
X247260000Y-41620000D02*
X247260000Y-52000000D01*
X253280000Y-41620000D02*
X247260000Y-41620000D01*
%TO.C,J1*%
X252430000Y-65420000D02*
X253030000Y-65420000D01*
X252430000Y-63820000D02*
X252430000Y-65420000D01*
X253030000Y-63820000D02*
X252430000Y-63820000D01*
X252430000Y-62880000D02*
X253030000Y-62880000D01*
X252430000Y-61280000D02*
X252430000Y-62880000D01*
X253030000Y-61280000D02*
X252430000Y-61280000D01*
X252430000Y-60340000D02*
X253030000Y-60340000D01*
X252430000Y-58740000D02*
X252430000Y-60340000D01*
X253030000Y-58740000D02*
X252430000Y-58740000D01*
X252430000Y-57800000D02*
X253030000Y-57800000D01*
X252430000Y-56200000D02*
X252430000Y-57800000D01*
X253030000Y-56200000D02*
X252430000Y-56200000D01*
X247010000Y-64370000D02*
X248010000Y-64370000D01*
X247010000Y-57250000D02*
X248010000Y-57250000D01*
X248540000Y-64370000D02*
X248010000Y-64620000D01*
X248540000Y-57250000D02*
X248540000Y-64370000D01*
X248010000Y-57000000D02*
X248540000Y-57250000D01*
X248010000Y-64620000D02*
X247010000Y-64620000D01*
X248010000Y-57000000D02*
X248010000Y-64620000D01*
X247010000Y-57000000D02*
X248010000Y-57000000D01*
X252000000Y-55330000D02*
X248000000Y-55330000D01*
X253030000Y-66000000D02*
X253030000Y-55620000D01*
X247010000Y-66000000D02*
X253030000Y-66000000D01*
X247010000Y-55620000D02*
X247010000Y-66000000D01*
X253030000Y-55620000D02*
X247010000Y-55620000D01*
%TO.C,F2*%
X220500000Y-47550000D02*
X220500000Y-44750000D01*
X220500000Y-47550000D02*
X243100000Y-47550000D01*
X220500000Y-37950000D02*
X243100000Y-37950000D01*
X220500000Y-40750000D02*
X220500000Y-37950000D01*
X243100000Y-40750000D02*
X243100000Y-37950000D01*
X243100000Y-47550000D02*
X243100000Y-44750000D01*
%TO.C,F1*%
X214090000Y-35509545D02*
X214090000Y-36490455D01*
X215910000Y-35509545D02*
X215910000Y-36490455D01*
%TO.C,D5*%
X238000000Y-58500000D02*
X238000000Y-62400000D01*
X236000000Y-58500000D02*
X236000000Y-62400000D01*
X238000000Y-58500000D02*
X236000000Y-58500000D01*
%TO.C,D4*%
X223710000Y-34420000D02*
X223710000Y-34420000D01*
X223710000Y-34290000D02*
X223710000Y-34420000D01*
X223710000Y-34290000D02*
X223710000Y-34290000D01*
X223710000Y-34420000D02*
X223710000Y-34290000D01*
X226250000Y-34420000D02*
X226250000Y-34420000D01*
X226250000Y-34290000D02*
X226250000Y-34420000D01*
X226250000Y-34290000D02*
X226250000Y-34290000D01*
X226250000Y-34420000D02*
X226250000Y-34290000D01*
X223420000Y-34290000D02*
X223020000Y-34290000D01*
X223420000Y-33170000D02*
X223420000Y-34290000D01*
X223020000Y-33170000D02*
X223420000Y-33170000D01*
X223020000Y-34290000D02*
X223020000Y-33170000D01*
X226540000Y-34290000D02*
X223420000Y-34290000D01*
X223420000Y-34290000D02*
X223420000Y-30430000D01*
X226540000Y-34290000D02*
X226540000Y-30430000D01*
X223420000Y-30430000D02*
G75*
G02*
X226540000Y-30430000I1560000J0D01*
G01*
%TO.C,D2*%
X253290000Y-117830000D02*
X253290000Y-117830000D01*
X253290000Y-117960000D02*
X253290000Y-117830000D01*
X253290000Y-117960000D02*
X253290000Y-117960000D01*
X253290000Y-117830000D02*
X253290000Y-117960000D01*
X250750000Y-117830000D02*
X250750000Y-117830000D01*
X250750000Y-117960000D02*
X250750000Y-117830000D01*
X250750000Y-117960000D02*
X250750000Y-117960000D01*
X250750000Y-117830000D02*
X250750000Y-117960000D01*
X253580000Y-117960000D02*
X253980000Y-117960000D01*
X253580000Y-119080000D02*
X253580000Y-117960000D01*
X253980000Y-119080000D02*
X253580000Y-119080000D01*
X253980000Y-117960000D02*
X253980000Y-119080000D01*
X250460000Y-117960000D02*
X253580000Y-117960000D01*
X253580000Y-117960000D02*
X253580000Y-121820000D01*
X250460000Y-117960000D02*
X250460000Y-121820000D01*
X253580000Y-121820000D02*
G75*
G02*
X250460000Y-121820000I-1560000J0D01*
G01*
%TO.C,D1*%
X258540000Y-117830000D02*
X258540000Y-117830000D01*
X258540000Y-117960000D02*
X258540000Y-117830000D01*
X258540000Y-117960000D02*
X258540000Y-117960000D01*
X258540000Y-117830000D02*
X258540000Y-117960000D01*
X256000000Y-117830000D02*
X256000000Y-117830000D01*
X256000000Y-117960000D02*
X256000000Y-117830000D01*
X256000000Y-117960000D02*
X256000000Y-117960000D01*
X256000000Y-117830000D02*
X256000000Y-117960000D01*
X258830000Y-117960000D02*
X259230000Y-117960000D01*
X258830000Y-119080000D02*
X258830000Y-117960000D01*
X259230000Y-119080000D02*
X258830000Y-119080000D01*
X259230000Y-117960000D02*
X259230000Y-119080000D01*
X255710000Y-117960000D02*
X258830000Y-117960000D01*
X258830000Y-117960000D02*
X258830000Y-121820000D01*
X255710000Y-117960000D02*
X255710000Y-121820000D01*
X258830000Y-121820000D02*
G75*
G02*
X255710000Y-121820000I-1560000J0D01*
G01*
%TO.C,C3*%
X219238748Y-35985000D02*
X219761252Y-35985000D01*
X219238748Y-34515000D02*
X219761252Y-34515000D01*
%TO.C,C2*%
X220485000Y-26261252D02*
X220485000Y-25738748D01*
X219015000Y-26261252D02*
X219015000Y-25738748D01*
%TO.C,J3*%
X217050000Y-22850000D02*
X216550000Y-22850000D01*
X217050000Y-23590000D02*
X217050000Y-22850000D01*
X210477000Y-26727000D02*
X210524000Y-26681000D01*
X208180000Y-29025000D02*
X208215000Y-28989000D01*
X210284000Y-26511000D02*
X210319000Y-26476000D01*
X207975000Y-28819000D02*
X208022000Y-28773000D01*
X206690000Y-33011000D02*
X206690000Y-23090000D01*
X216810000Y-33011000D02*
X216810000Y-23090000D01*
X216810000Y-23090000D02*
X206690000Y-23090000D01*
X216810000Y-33011000D02*
X206690000Y-33011000D01*
X216810000Y-30051000D02*
X206690000Y-30051000D01*
X216810000Y-25150000D02*
X206690000Y-25150000D01*
X216810000Y-23650000D02*
X206690000Y-23650000D01*
X210930000Y-27750000D02*
G75*
G03*
X210930000Y-27750000I-1680000J0D01*
G01*
X213566682Y-26215244D02*
G75*
G02*
X214250000Y-26070000I683318J-1534756D01*
G01*
X212714574Y-28433042D02*
G75*
G02*
X212715000Y-27066000I1535426J683042D01*
G01*
X214933042Y-29285426D02*
G75*
G02*
X213566000Y-29285000I-683042J1535426D01*
G01*
X215785426Y-27066958D02*
G75*
G02*
X215785000Y-28434000I-1535426J-683042D01*
G01*
X214221195Y-26069747D02*
G75*
G02*
X214934000Y-26215000I28805J-1680253D01*
G01*
%TO.C,J6*%
X238550000Y-22600000D02*
X238050000Y-22600000D01*
X238550000Y-23340000D02*
X238550000Y-22600000D01*
X231977000Y-26477000D02*
X232024000Y-26431000D01*
X229680000Y-28775000D02*
X229715000Y-28739000D01*
X231784000Y-26261000D02*
X231819000Y-26226000D01*
X229475000Y-28569000D02*
X229522000Y-28523000D01*
X228190000Y-32761000D02*
X228190000Y-22840000D01*
X238310000Y-32761000D02*
X238310000Y-22840000D01*
X238310000Y-22840000D02*
X228190000Y-22840000D01*
X238310000Y-32761000D02*
X228190000Y-32761000D01*
X238310000Y-29801000D02*
X228190000Y-29801000D01*
X238310000Y-24900000D02*
X228190000Y-24900000D01*
X238310000Y-23400000D02*
X228190000Y-23400000D01*
X232430000Y-27500000D02*
G75*
G03*
X232430000Y-27500000I-1680000J0D01*
G01*
X235066682Y-25965244D02*
G75*
G02*
X235750000Y-25820000I683318J-1534756D01*
G01*
X234214574Y-28183042D02*
G75*
G02*
X234215000Y-26816000I1535426J683042D01*
G01*
X236433042Y-29035426D02*
G75*
G02*
X235066000Y-29035000I-683042J1535426D01*
G01*
X237285426Y-26816958D02*
G75*
G02*
X237285000Y-28184000I-1535426J-683042D01*
G01*
X235721195Y-25819747D02*
G75*
G02*
X236434000Y-25965000I28805J-1680253D01*
G01*
%TO.C,J11*%
X254680000Y-27500000D02*
G75*
G03*
X254680000Y-27500000I-1680000J0D01*
G01*
X260560000Y-23400000D02*
X250440000Y-23400000D01*
X260560000Y-24900000D02*
X250440000Y-24900000D01*
X260560000Y-29801000D02*
X250440000Y-29801000D01*
X260560000Y-32761000D02*
X250440000Y-32761000D01*
X260560000Y-22840000D02*
X250440000Y-22840000D01*
X260560000Y-32761000D02*
X260560000Y-22840000D01*
X250440000Y-32761000D02*
X250440000Y-22840000D01*
X251725000Y-28569000D02*
X251772000Y-28523000D01*
X254034000Y-26261000D02*
X254069000Y-26226000D01*
X251930000Y-28775000D02*
X251965000Y-28739000D01*
X254227000Y-26477000D02*
X254274000Y-26431000D01*
X260800000Y-23340000D02*
X260800000Y-22600000D01*
X260800000Y-22600000D02*
X260300000Y-22600000D01*
X257971195Y-25819747D02*
G75*
G02*
X258684000Y-25965000I28805J-1680253D01*
G01*
X259535426Y-26816958D02*
G75*
G02*
X259535000Y-28184000I-1535426J-683042D01*
G01*
X258683042Y-29035426D02*
G75*
G02*
X257316000Y-29035000I-683042J1535426D01*
G01*
X256464574Y-28183042D02*
G75*
G02*
X256465000Y-26816000I1535426J683042D01*
G01*
X257316682Y-25965244D02*
G75*
G02*
X258000000Y-25820000I683318J-1534756D01*
G01*
%TO.C,R2*%
X259485000Y-112022936D02*
X259485000Y-112477064D01*
X258015000Y-112022936D02*
X258015000Y-112477064D01*
%TO.C,R3*%
X223265000Y-30727064D02*
X223265000Y-30272936D01*
X224735000Y-30727064D02*
X224735000Y-30272936D01*
%TO.C,R4*%
X226985000Y-30727064D02*
X226985000Y-30272936D01*
X225515000Y-30727064D02*
X225515000Y-30272936D01*
%TO.C,R5*%
X252765000Y-112022936D02*
X252765000Y-112477064D01*
X254235000Y-112022936D02*
X254235000Y-112477064D01*
%TO.C,R6*%
X258477064Y-37985000D02*
X258022936Y-37985000D01*
X258477064Y-36515000D02*
X258022936Y-36515000D01*
%TO.C,R7*%
X258564564Y-38515000D02*
X258110436Y-38515000D01*
X258564564Y-39985000D02*
X258110436Y-39985000D01*
%TO.C,R9*%
X216515000Y-43889564D02*
X216515000Y-43435436D01*
X217985000Y-43889564D02*
X217985000Y-43435436D01*
%TO.C,R10*%
X216772936Y-68515000D02*
X217227064Y-68515000D01*
X216772936Y-69985000D02*
X217227064Y-69985000D01*
%TO.C,R11*%
X235735000Y-69022936D02*
X235735000Y-69477064D01*
X234265000Y-69022936D02*
X234265000Y-69477064D01*
%TO.C,R12*%
X237765000Y-69022936D02*
X237765000Y-69477064D01*
X239235000Y-69022936D02*
X239235000Y-69477064D01*
%TO.C,R13*%
X246485000Y-56860436D02*
X246485000Y-57314564D01*
X245015000Y-56860436D02*
X245015000Y-57314564D01*
%TO.C,R14*%
X246485000Y-60727064D02*
X246485000Y-60272936D01*
X245015000Y-60727064D02*
X245015000Y-60272936D01*
%TO.C,J7*%
D10*
X244041666Y-33452380D02*
X244041666Y-34166666D01*
X243994047Y-34309523D01*
X243898809Y-34404761D01*
X243755952Y-34452380D01*
X243660714Y-34452380D01*
X244422619Y-33452380D02*
X245089285Y-33452380D01*
X244660714Y-34452380D01*
%TO.C,J2*%
X259532380Y-69573333D02*
X260246666Y-69573333D01*
X260389523Y-69620952D01*
X260484761Y-69716190D01*
X260532380Y-69859047D01*
X260532380Y-69954285D01*
X259627619Y-69144761D02*
X259580000Y-69097142D01*
X259532380Y-69001904D01*
X259532380Y-68763809D01*
X259580000Y-68668571D01*
X259627619Y-68620952D01*
X259722857Y-68573333D01*
X259818095Y-68573333D01*
X259960952Y-68620952D01*
X260532380Y-69192380D01*
X260532380Y-68573333D01*
%TO.C,J5*%
X259532380Y-53063333D02*
X260246666Y-53063333D01*
X260389523Y-53110952D01*
X260484761Y-53206190D01*
X260532380Y-53349047D01*
X260532380Y-53444285D01*
X259532380Y-52110952D02*
X259532380Y-52587142D01*
X260008571Y-52634761D01*
X259960952Y-52587142D01*
X259913333Y-52491904D01*
X259913333Y-52253809D01*
X259960952Y-52158571D01*
X260008571Y-52110952D01*
X260103809Y-52063333D01*
X260341904Y-52063333D01*
X260437142Y-52110952D01*
X260484761Y-52158571D01*
X260532380Y-52253809D01*
X260532380Y-52491904D01*
X260484761Y-52587142D01*
X260437142Y-52634761D01*
%TO.C,U2*%
X249452380Y-91011904D02*
X250261904Y-91011904D01*
X250357142Y-90964285D01*
X250404761Y-90916666D01*
X250452380Y-90821428D01*
X250452380Y-90630952D01*
X250404761Y-90535714D01*
X250357142Y-90488095D01*
X250261904Y-90440476D01*
X249452380Y-90440476D01*
X249547619Y-90011904D02*
X249500000Y-89964285D01*
X249452380Y-89869047D01*
X249452380Y-89630952D01*
X249500000Y-89535714D01*
X249547619Y-89488095D01*
X249642857Y-89440476D01*
X249738095Y-89440476D01*
X249880952Y-89488095D01*
X250452380Y-90059523D01*
X250452380Y-89440476D01*
X244996666Y-115392857D02*
X244996666Y-114916666D01*
X245282380Y-115488095D02*
X244282380Y-115154761D01*
X245282380Y-114821428D01*
X245282380Y-114488095D02*
X244282380Y-114488095D01*
X245282380Y-113916666D01*
X244282380Y-113916666D01*
X244282380Y-113583333D02*
X244282380Y-113011904D01*
X245282380Y-113297619D02*
X244282380Y-113297619D01*
%TO.C,J10*%
X250380476Y-71232380D02*
X250380476Y-71946666D01*
X250332857Y-72089523D01*
X250237619Y-72184761D01*
X250094761Y-72232380D01*
X249999523Y-72232380D01*
X251380476Y-72232380D02*
X250809047Y-72232380D01*
X251094761Y-72232380D02*
X251094761Y-71232380D01*
X250999523Y-71375238D01*
X250904285Y-71470476D01*
X250809047Y-71518095D01*
X251999523Y-71232380D02*
X252094761Y-71232380D01*
X252190000Y-71280000D01*
X252237619Y-71327619D01*
X252285238Y-71422857D01*
X252332857Y-71613333D01*
X252332857Y-71851428D01*
X252285238Y-72041904D01*
X252237619Y-72137142D01*
X252190000Y-72184761D01*
X252094761Y-72232380D01*
X251999523Y-72232380D01*
X251904285Y-72184761D01*
X251856666Y-72137142D01*
X251809047Y-72041904D01*
X251761428Y-71851428D01*
X251761428Y-71613333D01*
X251809047Y-71422857D01*
X251856666Y-71327619D01*
X251904285Y-71280000D01*
X251999523Y-71232380D01*
%TO.C,BT1*%
X213428571Y-73365714D02*
X213476190Y-73222857D01*
X213523809Y-73175238D01*
X213619047Y-73127619D01*
X213761904Y-73127619D01*
X213857142Y-73175238D01*
X213904761Y-73222857D01*
X213952380Y-73318095D01*
X213952380Y-73699047D01*
X212952380Y-73699047D01*
X212952380Y-73365714D01*
X213000000Y-73270476D01*
X213047619Y-73222857D01*
X213142857Y-73175238D01*
X213238095Y-73175238D01*
X213333333Y-73222857D01*
X213380952Y-73270476D01*
X213428571Y-73365714D01*
X213428571Y-73699047D01*
X212952380Y-72841904D02*
X212952380Y-72270476D01*
X213952380Y-72556190D02*
X212952380Y-72556190D01*
X213952380Y-71413333D02*
X213952380Y-71984761D01*
X213952380Y-71699047D02*
X212952380Y-71699047D01*
X213095238Y-71794285D01*
X213190476Y-71889523D01*
X213238095Y-71984761D01*
%TO.C,U4*%
X226373095Y-95932380D02*
X226373095Y-96741904D01*
X226420714Y-96837142D01*
X226468333Y-96884761D01*
X226563571Y-96932380D01*
X226754047Y-96932380D01*
X226849285Y-96884761D01*
X226896904Y-96837142D01*
X226944523Y-96741904D01*
X226944523Y-95932380D01*
X227849285Y-96265714D02*
X227849285Y-96932380D01*
X227611190Y-95884761D02*
X227373095Y-96599047D01*
X227992142Y-96599047D01*
X225238095Y-118792380D02*
X225238095Y-119601904D01*
X225285714Y-119697142D01*
X225333333Y-119744761D01*
X225428571Y-119792380D01*
X225619047Y-119792380D01*
X225714285Y-119744761D01*
X225761904Y-119697142D01*
X225809523Y-119601904D01*
X225809523Y-118792380D01*
X226238095Y-119744761D02*
X226380952Y-119792380D01*
X226619047Y-119792380D01*
X226714285Y-119744761D01*
X226761904Y-119697142D01*
X226809523Y-119601904D01*
X226809523Y-119506666D01*
X226761904Y-119411428D01*
X226714285Y-119363809D01*
X226619047Y-119316190D01*
X226428571Y-119268571D01*
X226333333Y-119220952D01*
X226285714Y-119173333D01*
X226238095Y-119078095D01*
X226238095Y-118982857D01*
X226285714Y-118887619D01*
X226333333Y-118840000D01*
X226428571Y-118792380D01*
X226666666Y-118792380D01*
X226809523Y-118840000D01*
X227571428Y-119268571D02*
X227714285Y-119316190D01*
X227761904Y-119363809D01*
X227809523Y-119459047D01*
X227809523Y-119601904D01*
X227761904Y-119697142D01*
X227714285Y-119744761D01*
X227619047Y-119792380D01*
X227238095Y-119792380D01*
X227238095Y-118792380D01*
X227571428Y-118792380D01*
X227666666Y-118840000D01*
X227714285Y-118887619D01*
X227761904Y-118982857D01*
X227761904Y-119078095D01*
X227714285Y-119173333D01*
X227666666Y-119220952D01*
X227571428Y-119268571D01*
X227238095Y-119268571D01*
X223047619Y-76612380D02*
X222714285Y-76136190D01*
X222476190Y-76612380D02*
X222476190Y-75612380D01*
X222857142Y-75612380D01*
X222952380Y-75660000D01*
X223000000Y-75707619D01*
X223047619Y-75802857D01*
X223047619Y-75945714D01*
X223000000Y-76040952D01*
X222952380Y-76088571D01*
X222857142Y-76136190D01*
X222476190Y-76136190D01*
X223809523Y-76088571D02*
X223476190Y-76088571D01*
X223476190Y-76612380D02*
X223476190Y-75612380D01*
X223952380Y-75612380D01*
X225047619Y-76326666D02*
X225523809Y-76326666D01*
X224952380Y-76612380D02*
X225285714Y-75612380D01*
X225619047Y-76612380D01*
X225952380Y-75945714D02*
X225952380Y-76612380D01*
X225952380Y-76040952D02*
X226000000Y-75993333D01*
X226095238Y-75945714D01*
X226238095Y-75945714D01*
X226333333Y-75993333D01*
X226380952Y-76088571D01*
X226380952Y-76612380D01*
X226714285Y-75945714D02*
X227095238Y-75945714D01*
X226857142Y-75612380D02*
X226857142Y-76469523D01*
X226904761Y-76564761D01*
X227000000Y-76612380D01*
X227095238Y-76612380D01*
X227809523Y-76564761D02*
X227714285Y-76612380D01*
X227523809Y-76612380D01*
X227428571Y-76564761D01*
X227380952Y-76469523D01*
X227380952Y-76088571D01*
X227428571Y-75993333D01*
X227523809Y-75945714D01*
X227714285Y-75945714D01*
X227809523Y-75993333D01*
X227857142Y-76088571D01*
X227857142Y-76183809D01*
X227380952Y-76279047D01*
X228285714Y-75945714D02*
X228285714Y-76612380D01*
X228285714Y-76040952D02*
X228333333Y-75993333D01*
X228428571Y-75945714D01*
X228571428Y-75945714D01*
X228666666Y-75993333D01*
X228714285Y-76088571D01*
X228714285Y-76612380D01*
X229190476Y-75945714D02*
X229190476Y-76612380D01*
X229190476Y-76040952D02*
X229238095Y-75993333D01*
X229333333Y-75945714D01*
X229476190Y-75945714D01*
X229571428Y-75993333D01*
X229619047Y-76088571D01*
X229619047Y-76612380D01*
X230523809Y-76612380D02*
X230523809Y-76088571D01*
X230476190Y-75993333D01*
X230380952Y-75945714D01*
X230190476Y-75945714D01*
X230095238Y-75993333D01*
X230523809Y-76564761D02*
X230428571Y-76612380D01*
X230190476Y-76612380D01*
X230095238Y-76564761D01*
X230047619Y-76469523D01*
X230047619Y-76374285D01*
X230095238Y-76279047D01*
X230190476Y-76231428D01*
X230428571Y-76231428D01*
X230523809Y-76183809D01*
X215879761Y-113712380D02*
X216213095Y-114712380D01*
X216546428Y-113712380D01*
X216879761Y-114712380D02*
X216879761Y-113712380D01*
X217355952Y-114712380D02*
X217355952Y-113712380D01*
X217927380Y-114712380D01*
X217927380Y-113712380D01*
X217236904Y-111220000D02*
X217141666Y-111172380D01*
X216998809Y-111172380D01*
X216855952Y-111220000D01*
X216760714Y-111315238D01*
X216713095Y-111410476D01*
X216665476Y-111600952D01*
X216665476Y-111743809D01*
X216713095Y-111934285D01*
X216760714Y-112029523D01*
X216855952Y-112124761D01*
X216998809Y-112172380D01*
X217094047Y-112172380D01*
X217236904Y-112124761D01*
X217284523Y-112077142D01*
X217284523Y-111743809D01*
X217094047Y-111743809D01*
X216427380Y-109632380D02*
X216094047Y-109156190D01*
X215855952Y-109632380D02*
X215855952Y-108632380D01*
X216236904Y-108632380D01*
X216332142Y-108680000D01*
X216379761Y-108727619D01*
X216427380Y-108822857D01*
X216427380Y-108965714D01*
X216379761Y-109060952D01*
X216332142Y-109108571D01*
X216236904Y-109156190D01*
X215855952Y-109156190D01*
X216808333Y-109584761D02*
X216951190Y-109632380D01*
X217189285Y-109632380D01*
X217284523Y-109584761D01*
X217332142Y-109537142D01*
X217379761Y-109441904D01*
X217379761Y-109346666D01*
X217332142Y-109251428D01*
X217284523Y-109203809D01*
X217189285Y-109156190D01*
X216998809Y-109108571D01*
X216903571Y-109060952D01*
X216855952Y-109013333D01*
X216808333Y-108918095D01*
X216808333Y-108822857D01*
X216855952Y-108727619D01*
X216903571Y-108680000D01*
X216998809Y-108632380D01*
X217236904Y-108632380D01*
X217379761Y-108680000D01*
X217665476Y-108632380D02*
X218236904Y-108632380D01*
X217951190Y-109632380D02*
X217951190Y-108632380D01*
X216236904Y-106568571D02*
X216570238Y-106568571D01*
X216713095Y-107092380D02*
X216236904Y-107092380D01*
X216236904Y-106092380D01*
X216713095Y-106092380D01*
X217141666Y-107092380D02*
X217141666Y-106092380D01*
X217713095Y-107092380D01*
X217713095Y-106092380D01*
X216213095Y-103552380D02*
X216832142Y-103552380D01*
X216498809Y-103933333D01*
X216641666Y-103933333D01*
X216736904Y-103980952D01*
X216784523Y-104028571D01*
X216832142Y-104123809D01*
X216832142Y-104361904D01*
X216784523Y-104457142D01*
X216736904Y-104504761D01*
X216641666Y-104552380D01*
X216355952Y-104552380D01*
X216260714Y-104504761D01*
X216213095Y-104457142D01*
X217117857Y-103552380D02*
X217451190Y-104552380D01*
X217784523Y-103552380D01*
X217236904Y-101060000D02*
X217141666Y-101012380D01*
X216998809Y-101012380D01*
X216855952Y-101060000D01*
X216760714Y-101155238D01*
X216713095Y-101250476D01*
X216665476Y-101440952D01*
X216665476Y-101583809D01*
X216713095Y-101774285D01*
X216760714Y-101869523D01*
X216855952Y-101964761D01*
X216998809Y-102012380D01*
X217094047Y-102012380D01*
X217236904Y-101964761D01*
X217284523Y-101917142D01*
X217284523Y-101583809D01*
X217094047Y-101583809D01*
X216189285Y-99424761D02*
X216332142Y-99472380D01*
X216570238Y-99472380D01*
X216665476Y-99424761D01*
X216713095Y-99377142D01*
X216760714Y-99281904D01*
X216760714Y-99186666D01*
X216713095Y-99091428D01*
X216665476Y-99043809D01*
X216570238Y-98996190D01*
X216379761Y-98948571D01*
X216284523Y-98900952D01*
X216236904Y-98853333D01*
X216189285Y-98758095D01*
X216189285Y-98662857D01*
X216236904Y-98567619D01*
X216284523Y-98520000D01*
X216379761Y-98472380D01*
X216617857Y-98472380D01*
X216760714Y-98520000D01*
X217189285Y-99472380D02*
X217189285Y-98472380D01*
X217760714Y-99472380D02*
X217332142Y-98900952D01*
X217760714Y-98472380D02*
X217189285Y-99043809D01*
X216165476Y-96884761D02*
X216308333Y-96932380D01*
X216546428Y-96932380D01*
X216641666Y-96884761D01*
X216689285Y-96837142D01*
X216736904Y-96741904D01*
X216736904Y-96646666D01*
X216689285Y-96551428D01*
X216641666Y-96503809D01*
X216546428Y-96456190D01*
X216355952Y-96408571D01*
X216260714Y-96360952D01*
X216213095Y-96313333D01*
X216165476Y-96218095D01*
X216165476Y-96122857D01*
X216213095Y-96027619D01*
X216260714Y-95980000D01*
X216355952Y-95932380D01*
X216594047Y-95932380D01*
X216736904Y-95980000D01*
X217355952Y-95932380D02*
X217546428Y-95932380D01*
X217641666Y-95980000D01*
X217736904Y-96075238D01*
X217784523Y-96265714D01*
X217784523Y-96599047D01*
X217736904Y-96789523D01*
X217641666Y-96884761D01*
X217546428Y-96932380D01*
X217355952Y-96932380D01*
X217260714Y-96884761D01*
X217165476Y-96789523D01*
X217117857Y-96599047D01*
X217117857Y-96265714D01*
X217165476Y-96075238D01*
X217260714Y-95980000D01*
X217355952Y-95932380D01*
X216189285Y-94344761D02*
X216332142Y-94392380D01*
X216570238Y-94392380D01*
X216665476Y-94344761D01*
X216713095Y-94297142D01*
X216760714Y-94201904D01*
X216760714Y-94106666D01*
X216713095Y-94011428D01*
X216665476Y-93963809D01*
X216570238Y-93916190D01*
X216379761Y-93868571D01*
X216284523Y-93820952D01*
X216236904Y-93773333D01*
X216189285Y-93678095D01*
X216189285Y-93582857D01*
X216236904Y-93487619D01*
X216284523Y-93440000D01*
X216379761Y-93392380D01*
X216617857Y-93392380D01*
X216760714Y-93440000D01*
X217760714Y-94297142D02*
X217713095Y-94344761D01*
X217570238Y-94392380D01*
X217475000Y-94392380D01*
X217332142Y-94344761D01*
X217236904Y-94249523D01*
X217189285Y-94154285D01*
X217141666Y-93963809D01*
X217141666Y-93820952D01*
X217189285Y-93630476D01*
X217236904Y-93535238D01*
X217332142Y-93440000D01*
X217475000Y-93392380D01*
X217570238Y-93392380D01*
X217713095Y-93440000D01*
X217760714Y-93487619D01*
X216213095Y-91804761D02*
X216355952Y-91852380D01*
X216594047Y-91852380D01*
X216689285Y-91804761D01*
X216736904Y-91757142D01*
X216784523Y-91661904D01*
X216784523Y-91566666D01*
X216736904Y-91471428D01*
X216689285Y-91423809D01*
X216594047Y-91376190D01*
X216403571Y-91328571D01*
X216308333Y-91280952D01*
X216260714Y-91233333D01*
X216213095Y-91138095D01*
X216213095Y-91042857D01*
X216260714Y-90947619D01*
X216308333Y-90900000D01*
X216403571Y-90852380D01*
X216641666Y-90852380D01*
X216784523Y-90900000D01*
X217736904Y-91852380D02*
X217165476Y-91852380D01*
X217451190Y-91852380D02*
X217451190Y-90852380D01*
X217355952Y-90995238D01*
X217260714Y-91090476D01*
X217165476Y-91138095D01*
X216213095Y-89264761D02*
X216355952Y-89312380D01*
X216594047Y-89312380D01*
X216689285Y-89264761D01*
X216736904Y-89217142D01*
X216784523Y-89121904D01*
X216784523Y-89026666D01*
X216736904Y-88931428D01*
X216689285Y-88883809D01*
X216594047Y-88836190D01*
X216403571Y-88788571D01*
X216308333Y-88740952D01*
X216260714Y-88693333D01*
X216213095Y-88598095D01*
X216213095Y-88502857D01*
X216260714Y-88407619D01*
X216308333Y-88360000D01*
X216403571Y-88312380D01*
X216641666Y-88312380D01*
X216784523Y-88360000D01*
X217165476Y-88407619D02*
X217213095Y-88360000D01*
X217308333Y-88312380D01*
X217546428Y-88312380D01*
X217641666Y-88360000D01*
X217689285Y-88407619D01*
X217736904Y-88502857D01*
X217736904Y-88598095D01*
X217689285Y-88740952D01*
X217117857Y-89312380D01*
X217736904Y-89312380D01*
X216213095Y-86724761D02*
X216355952Y-86772380D01*
X216594047Y-86772380D01*
X216689285Y-86724761D01*
X216736904Y-86677142D01*
X216784523Y-86581904D01*
X216784523Y-86486666D01*
X216736904Y-86391428D01*
X216689285Y-86343809D01*
X216594047Y-86296190D01*
X216403571Y-86248571D01*
X216308333Y-86200952D01*
X216260714Y-86153333D01*
X216213095Y-86058095D01*
X216213095Y-85962857D01*
X216260714Y-85867619D01*
X216308333Y-85820000D01*
X216403571Y-85772380D01*
X216641666Y-85772380D01*
X216784523Y-85820000D01*
X217117857Y-85772380D02*
X217736904Y-85772380D01*
X217403571Y-86153333D01*
X217546428Y-86153333D01*
X217641666Y-86200952D01*
X217689285Y-86248571D01*
X217736904Y-86343809D01*
X217736904Y-86581904D01*
X217689285Y-86677142D01*
X217641666Y-86724761D01*
X217546428Y-86772380D01*
X217260714Y-86772380D01*
X217165476Y-86724761D01*
X217117857Y-86677142D01*
X216117857Y-83232380D02*
X216451190Y-84232380D01*
X216784523Y-83232380D01*
X217117857Y-83232380D02*
X217117857Y-84041904D01*
X217165476Y-84137142D01*
X217213095Y-84184761D01*
X217308333Y-84232380D01*
X217498809Y-84232380D01*
X217594047Y-84184761D01*
X217641666Y-84137142D01*
X217689285Y-84041904D01*
X217689285Y-83232380D01*
X217236904Y-80740000D02*
X217141666Y-80692380D01*
X216998809Y-80692380D01*
X216855952Y-80740000D01*
X216760714Y-80835238D01*
X216713095Y-80930476D01*
X216665476Y-81120952D01*
X216665476Y-81263809D01*
X216713095Y-81454285D01*
X216760714Y-81549523D01*
X216855952Y-81644761D01*
X216998809Y-81692380D01*
X217094047Y-81692380D01*
X217236904Y-81644761D01*
X217284523Y-81597142D01*
X217284523Y-81263809D01*
X217094047Y-81263809D01*
X216260714Y-78866666D02*
X216736904Y-78866666D01*
X216165476Y-79152380D02*
X216498809Y-78152380D01*
X216832142Y-79152380D01*
X217355952Y-78152380D02*
X217451190Y-78152380D01*
X217546428Y-78200000D01*
X217594047Y-78247619D01*
X217641666Y-78342857D01*
X217689285Y-78533333D01*
X217689285Y-78771428D01*
X217641666Y-78961904D01*
X217594047Y-79057142D01*
X217546428Y-79104761D01*
X217451190Y-79152380D01*
X217355952Y-79152380D01*
X217260714Y-79104761D01*
X217213095Y-79057142D01*
X217165476Y-78961904D01*
X217117857Y-78771428D01*
X217117857Y-78533333D01*
X217165476Y-78342857D01*
X217213095Y-78247619D01*
X217260714Y-78200000D01*
X217355952Y-78152380D01*
X234628095Y-113712380D02*
X235247142Y-113712380D01*
X234913809Y-114093333D01*
X235056666Y-114093333D01*
X235151904Y-114140952D01*
X235199523Y-114188571D01*
X235247142Y-114283809D01*
X235247142Y-114521904D01*
X235199523Y-114617142D01*
X235151904Y-114664761D01*
X235056666Y-114712380D01*
X234770952Y-114712380D01*
X234675714Y-114664761D01*
X234628095Y-114617142D01*
X235532857Y-113712380D02*
X235866190Y-114712380D01*
X236199523Y-113712380D01*
X235651904Y-111220000D02*
X235556666Y-111172380D01*
X235413809Y-111172380D01*
X235270952Y-111220000D01*
X235175714Y-111315238D01*
X235128095Y-111410476D01*
X235080476Y-111600952D01*
X235080476Y-111743809D01*
X235128095Y-111934285D01*
X235175714Y-112029523D01*
X235270952Y-112124761D01*
X235413809Y-112172380D01*
X235509047Y-112172380D01*
X235651904Y-112124761D01*
X235699523Y-112077142D01*
X235699523Y-111743809D01*
X235509047Y-111743809D01*
X234628095Y-108632380D02*
X235199523Y-108632380D01*
X234913809Y-109632380D02*
X234913809Y-108632380D01*
X235437619Y-108632380D02*
X236104285Y-109632380D01*
X236104285Y-108632380D02*
X235437619Y-109632380D01*
X235223333Y-107092380D02*
X234890000Y-106616190D01*
X234651904Y-107092380D02*
X234651904Y-106092380D01*
X235032857Y-106092380D01*
X235128095Y-106140000D01*
X235175714Y-106187619D01*
X235223333Y-106282857D01*
X235223333Y-106425714D01*
X235175714Y-106520952D01*
X235128095Y-106568571D01*
X235032857Y-106616190D01*
X234651904Y-106616190D01*
X235556666Y-106092380D02*
X236223333Y-107092380D01*
X236223333Y-106092380D02*
X235556666Y-107092380D01*
X234651904Y-104552380D02*
X234651904Y-103552380D01*
X234890000Y-103552380D01*
X235032857Y-103600000D01*
X235128095Y-103695238D01*
X235175714Y-103790476D01*
X235223333Y-103980952D01*
X235223333Y-104123809D01*
X235175714Y-104314285D01*
X235128095Y-104409523D01*
X235032857Y-104504761D01*
X234890000Y-104552380D01*
X234651904Y-104552380D01*
X235794761Y-103980952D02*
X235699523Y-103933333D01*
X235651904Y-103885714D01*
X235604285Y-103790476D01*
X235604285Y-103742857D01*
X235651904Y-103647619D01*
X235699523Y-103600000D01*
X235794761Y-103552380D01*
X235985238Y-103552380D01*
X236080476Y-103600000D01*
X236128095Y-103647619D01*
X236175714Y-103742857D01*
X236175714Y-103790476D01*
X236128095Y-103885714D01*
X236080476Y-103933333D01*
X235985238Y-103980952D01*
X235794761Y-103980952D01*
X235699523Y-104028571D01*
X235651904Y-104076190D01*
X235604285Y-104171428D01*
X235604285Y-104361904D01*
X235651904Y-104457142D01*
X235699523Y-104504761D01*
X235794761Y-104552380D01*
X235985238Y-104552380D01*
X236080476Y-104504761D01*
X236128095Y-104457142D01*
X236175714Y-104361904D01*
X236175714Y-104171428D01*
X236128095Y-104076190D01*
X236080476Y-104028571D01*
X235985238Y-103980952D01*
X234651904Y-102012380D02*
X234651904Y-101012380D01*
X234890000Y-101012380D01*
X235032857Y-101060000D01*
X235128095Y-101155238D01*
X235175714Y-101250476D01*
X235223333Y-101440952D01*
X235223333Y-101583809D01*
X235175714Y-101774285D01*
X235128095Y-101869523D01*
X235032857Y-101964761D01*
X234890000Y-102012380D01*
X234651904Y-102012380D01*
X235556666Y-101012380D02*
X236223333Y-101012380D01*
X235794761Y-102012380D01*
X234651904Y-99472380D02*
X234651904Y-98472380D01*
X234890000Y-98472380D01*
X235032857Y-98520000D01*
X235128095Y-98615238D01*
X235175714Y-98710476D01*
X235223333Y-98900952D01*
X235223333Y-99043809D01*
X235175714Y-99234285D01*
X235128095Y-99329523D01*
X235032857Y-99424761D01*
X234890000Y-99472380D01*
X234651904Y-99472380D01*
X236080476Y-98472380D02*
X235890000Y-98472380D01*
X235794761Y-98520000D01*
X235747142Y-98567619D01*
X235651904Y-98710476D01*
X235604285Y-98900952D01*
X235604285Y-99281904D01*
X235651904Y-99377142D01*
X235699523Y-99424761D01*
X235794761Y-99472380D01*
X235985238Y-99472380D01*
X236080476Y-99424761D01*
X236128095Y-99377142D01*
X236175714Y-99281904D01*
X236175714Y-99043809D01*
X236128095Y-98948571D01*
X236080476Y-98900952D01*
X235985238Y-98853333D01*
X235794761Y-98853333D01*
X235699523Y-98900952D01*
X235651904Y-98948571D01*
X235604285Y-99043809D01*
X234651904Y-96932380D02*
X234651904Y-95932380D01*
X234890000Y-95932380D01*
X235032857Y-95980000D01*
X235128095Y-96075238D01*
X235175714Y-96170476D01*
X235223333Y-96360952D01*
X235223333Y-96503809D01*
X235175714Y-96694285D01*
X235128095Y-96789523D01*
X235032857Y-96884761D01*
X234890000Y-96932380D01*
X234651904Y-96932380D01*
X236128095Y-95932380D02*
X235651904Y-95932380D01*
X235604285Y-96408571D01*
X235651904Y-96360952D01*
X235747142Y-96313333D01*
X235985238Y-96313333D01*
X236080476Y-96360952D01*
X236128095Y-96408571D01*
X236175714Y-96503809D01*
X236175714Y-96741904D01*
X236128095Y-96837142D01*
X236080476Y-96884761D01*
X235985238Y-96932380D01*
X235747142Y-96932380D01*
X235651904Y-96884761D01*
X235604285Y-96837142D01*
X235651904Y-93440000D02*
X235556666Y-93392380D01*
X235413809Y-93392380D01*
X235270952Y-93440000D01*
X235175714Y-93535238D01*
X235128095Y-93630476D01*
X235080476Y-93820952D01*
X235080476Y-93963809D01*
X235128095Y-94154285D01*
X235175714Y-94249523D01*
X235270952Y-94344761D01*
X235413809Y-94392380D01*
X235509047Y-94392380D01*
X235651904Y-94344761D01*
X235699523Y-94297142D01*
X235699523Y-93963809D01*
X235509047Y-93963809D01*
X234628095Y-90852380D02*
X235247142Y-90852380D01*
X234913809Y-91233333D01*
X235056666Y-91233333D01*
X235151904Y-91280952D01*
X235199523Y-91328571D01*
X235247142Y-91423809D01*
X235247142Y-91661904D01*
X235199523Y-91757142D01*
X235151904Y-91804761D01*
X235056666Y-91852380D01*
X234770952Y-91852380D01*
X234675714Y-91804761D01*
X234628095Y-91757142D01*
X235532857Y-90852380D02*
X235866190Y-91852380D01*
X236199523Y-90852380D01*
X234651904Y-89312380D02*
X234651904Y-88312380D01*
X234890000Y-88312380D01*
X235032857Y-88360000D01*
X235128095Y-88455238D01*
X235175714Y-88550476D01*
X235223333Y-88740952D01*
X235223333Y-88883809D01*
X235175714Y-89074285D01*
X235128095Y-89169523D01*
X235032857Y-89264761D01*
X234890000Y-89312380D01*
X234651904Y-89312380D01*
X236080476Y-88645714D02*
X236080476Y-89312380D01*
X235842380Y-88264761D02*
X235604285Y-88979047D01*
X236223333Y-88979047D01*
X234651904Y-86772380D02*
X234651904Y-85772380D01*
X234890000Y-85772380D01*
X235032857Y-85820000D01*
X235128095Y-85915238D01*
X235175714Y-86010476D01*
X235223333Y-86200952D01*
X235223333Y-86343809D01*
X235175714Y-86534285D01*
X235128095Y-86629523D01*
X235032857Y-86724761D01*
X234890000Y-86772380D01*
X234651904Y-86772380D01*
X235556666Y-85772380D02*
X236175714Y-85772380D01*
X235842380Y-86153333D01*
X235985238Y-86153333D01*
X236080476Y-86200952D01*
X236128095Y-86248571D01*
X236175714Y-86343809D01*
X236175714Y-86581904D01*
X236128095Y-86677142D01*
X236080476Y-86724761D01*
X235985238Y-86772380D01*
X235699523Y-86772380D01*
X235604285Y-86724761D01*
X235556666Y-86677142D01*
X234651904Y-84232380D02*
X234651904Y-83232380D01*
X234890000Y-83232380D01*
X235032857Y-83280000D01*
X235128095Y-83375238D01*
X235175714Y-83470476D01*
X235223333Y-83660952D01*
X235223333Y-83803809D01*
X235175714Y-83994285D01*
X235128095Y-84089523D01*
X235032857Y-84184761D01*
X234890000Y-84232380D01*
X234651904Y-84232380D01*
X235604285Y-83327619D02*
X235651904Y-83280000D01*
X235747142Y-83232380D01*
X235985238Y-83232380D01*
X236080476Y-83280000D01*
X236128095Y-83327619D01*
X236175714Y-83422857D01*
X236175714Y-83518095D01*
X236128095Y-83660952D01*
X235556666Y-84232380D01*
X236175714Y-84232380D01*
X234651904Y-81692380D02*
X234651904Y-80692380D01*
X234890000Y-80692380D01*
X235032857Y-80740000D01*
X235128095Y-80835238D01*
X235175714Y-80930476D01*
X235223333Y-81120952D01*
X235223333Y-81263809D01*
X235175714Y-81454285D01*
X235128095Y-81549523D01*
X235032857Y-81644761D01*
X234890000Y-81692380D01*
X234651904Y-81692380D01*
X236175714Y-81692380D02*
X235604285Y-81692380D01*
X235890000Y-81692380D02*
X235890000Y-80692380D01*
X235794761Y-80835238D01*
X235699523Y-80930476D01*
X235604285Y-80978095D01*
X234651904Y-79152380D02*
X234651904Y-78152380D01*
X234890000Y-78152380D01*
X235032857Y-78200000D01*
X235128095Y-78295238D01*
X235175714Y-78390476D01*
X235223333Y-78580952D01*
X235223333Y-78723809D01*
X235175714Y-78914285D01*
X235128095Y-79009523D01*
X235032857Y-79104761D01*
X234890000Y-79152380D01*
X234651904Y-79152380D01*
X235842380Y-78152380D02*
X235937619Y-78152380D01*
X236032857Y-78200000D01*
X236080476Y-78247619D01*
X236128095Y-78342857D01*
X236175714Y-78533333D01*
X236175714Y-78771428D01*
X236128095Y-78961904D01*
X236080476Y-79057142D01*
X236032857Y-79104761D01*
X235937619Y-79152380D01*
X235842380Y-79152380D01*
X235747142Y-79104761D01*
X235699523Y-79057142D01*
X235651904Y-78961904D01*
X235604285Y-78771428D01*
X235604285Y-78533333D01*
X235651904Y-78342857D01*
X235699523Y-78247619D01*
X235747142Y-78200000D01*
X235842380Y-78152380D01*
%TO.C,R1*%
X226198333Y-71102380D02*
X225865000Y-70626190D01*
X225626904Y-71102380D02*
X225626904Y-70102380D01*
X226007857Y-70102380D01*
X226103095Y-70150000D01*
X226150714Y-70197619D01*
X226198333Y-70292857D01*
X226198333Y-70435714D01*
X226150714Y-70530952D01*
X226103095Y-70578571D01*
X226007857Y-70626190D01*
X225626904Y-70626190D01*
X227150714Y-71102380D02*
X226579285Y-71102380D01*
X226865000Y-71102380D02*
X226865000Y-70102380D01*
X226769761Y-70245238D01*
X226674523Y-70340476D01*
X226579285Y-70388095D01*
%TO.C,C1*%
X230083333Y-67677142D02*
X230035714Y-67724761D01*
X229892857Y-67772380D01*
X229797619Y-67772380D01*
X229654761Y-67724761D01*
X229559523Y-67629523D01*
X229511904Y-67534285D01*
X229464285Y-67343809D01*
X229464285Y-67200952D01*
X229511904Y-67010476D01*
X229559523Y-66915238D01*
X229654761Y-66820000D01*
X229797619Y-66772380D01*
X229892857Y-66772380D01*
X230035714Y-66820000D01*
X230083333Y-66867619D01*
X231035714Y-67772380D02*
X230464285Y-67772380D01*
X230750000Y-67772380D02*
X230750000Y-66772380D01*
X230654761Y-66915238D01*
X230559523Y-67010476D01*
X230464285Y-67058095D01*
%TO.C,Q2*%
X240884761Y-66607619D02*
X240789523Y-66560000D01*
X240694285Y-66464761D01*
X240551428Y-66321904D01*
X240456190Y-66274285D01*
X240360952Y-66274285D01*
X240408571Y-66512380D02*
X240313333Y-66464761D01*
X240218095Y-66369523D01*
X240170476Y-66179047D01*
X240170476Y-65845714D01*
X240218095Y-65655238D01*
X240313333Y-65560000D01*
X240408571Y-65512380D01*
X240599047Y-65512380D01*
X240694285Y-65560000D01*
X240789523Y-65655238D01*
X240837142Y-65845714D01*
X240837142Y-66179047D01*
X240789523Y-66369523D01*
X240694285Y-66464761D01*
X240599047Y-66512380D01*
X240408571Y-66512380D01*
X241218095Y-65607619D02*
X241265714Y-65560000D01*
X241360952Y-65512380D01*
X241599047Y-65512380D01*
X241694285Y-65560000D01*
X241741904Y-65607619D01*
X241789523Y-65702857D01*
X241789523Y-65798095D01*
X241741904Y-65940952D01*
X241170476Y-66512380D01*
X241789523Y-66512380D01*
%TO.C,U3*%
X223548095Y-49622380D02*
X223548095Y-50431904D01*
X223595714Y-50527142D01*
X223643333Y-50574761D01*
X223738571Y-50622380D01*
X223929047Y-50622380D01*
X224024285Y-50574761D01*
X224071904Y-50527142D01*
X224119523Y-50431904D01*
X224119523Y-49622380D01*
X224500476Y-49622380D02*
X225119523Y-49622380D01*
X224786190Y-50003333D01*
X224929047Y-50003333D01*
X225024285Y-50050952D01*
X225071904Y-50098571D01*
X225119523Y-50193809D01*
X225119523Y-50431904D01*
X225071904Y-50527142D01*
X225024285Y-50574761D01*
X224929047Y-50622380D01*
X224643333Y-50622380D01*
X224548095Y-50574761D01*
X224500476Y-50527142D01*
%TO.C,U1*%
X217238095Y-27602380D02*
X217238095Y-28411904D01*
X217285714Y-28507142D01*
X217333333Y-28554761D01*
X217428571Y-28602380D01*
X217619047Y-28602380D01*
X217714285Y-28554761D01*
X217761904Y-28507142D01*
X217809523Y-28411904D01*
X217809523Y-27602380D01*
X218809523Y-28602380D02*
X218238095Y-28602380D01*
X218523809Y-28602380D02*
X218523809Y-27602380D01*
X218428571Y-27745238D01*
X218333333Y-27840476D01*
X218238095Y-27888095D01*
%TO.C,Q1*%
X214047619Y-60345238D02*
X214000000Y-60440476D01*
X213904761Y-60535714D01*
X213761904Y-60678571D01*
X213714285Y-60773809D01*
X213714285Y-60869047D01*
X213952380Y-60821428D02*
X213904761Y-60916666D01*
X213809523Y-61011904D01*
X213619047Y-61059523D01*
X213285714Y-61059523D01*
X213095238Y-61011904D01*
X213000000Y-60916666D01*
X212952380Y-60821428D01*
X212952380Y-60630952D01*
X213000000Y-60535714D01*
X213095238Y-60440476D01*
X213285714Y-60392857D01*
X213619047Y-60392857D01*
X213809523Y-60440476D01*
X213904761Y-60535714D01*
X213952380Y-60630952D01*
X213952380Y-60821428D01*
X213952380Y-59440476D02*
X213952380Y-60011904D01*
X213952380Y-59726190D02*
X212952380Y-59726190D01*
X213095238Y-59821428D01*
X213190476Y-59916666D01*
X213238095Y-60011904D01*
%TO.C,K1*%
X244402380Y-54488095D02*
X243402380Y-54488095D01*
X244402380Y-53916666D02*
X243830952Y-54345238D01*
X243402380Y-53916666D02*
X243973809Y-54488095D01*
X244402380Y-52964285D02*
X244402380Y-53535714D01*
X244402380Y-53250000D02*
X243402380Y-53250000D01*
X243545238Y-53345238D01*
X243640476Y-53440476D01*
X243688095Y-53535714D01*
%TO.C,J9*%
X227832380Y-63313333D02*
X228546666Y-63313333D01*
X228689523Y-63360952D01*
X228784761Y-63456190D01*
X228832380Y-63599047D01*
X228832380Y-63694285D01*
X228832380Y-62789523D02*
X228832380Y-62599047D01*
X228784761Y-62503809D01*
X228737142Y-62456190D01*
X228594285Y-62360952D01*
X228403809Y-62313333D01*
X228022857Y-62313333D01*
X227927619Y-62360952D01*
X227880000Y-62408571D01*
X227832380Y-62503809D01*
X227832380Y-62694285D01*
X227880000Y-62789523D01*
X227927619Y-62837142D01*
X228022857Y-62884761D01*
X228260952Y-62884761D01*
X228356190Y-62837142D01*
X228403809Y-62789523D01*
X228451428Y-62694285D01*
X228451428Y-62503809D01*
X228403809Y-62408571D01*
X228356190Y-62360952D01*
X228260952Y-62313333D01*
%TO.C,J8*%
X219022380Y-63313333D02*
X219736666Y-63313333D01*
X219879523Y-63360952D01*
X219974761Y-63456190D01*
X220022380Y-63599047D01*
X220022380Y-63694285D01*
X219450952Y-62694285D02*
X219403333Y-62789523D01*
X219355714Y-62837142D01*
X219260476Y-62884761D01*
X219212857Y-62884761D01*
X219117619Y-62837142D01*
X219070000Y-62789523D01*
X219022380Y-62694285D01*
X219022380Y-62503809D01*
X219070000Y-62408571D01*
X219117619Y-62360952D01*
X219212857Y-62313333D01*
X219260476Y-62313333D01*
X219355714Y-62360952D01*
X219403333Y-62408571D01*
X219450952Y-62503809D01*
X219450952Y-62694285D01*
X219498571Y-62789523D01*
X219546190Y-62837142D01*
X219641428Y-62884761D01*
X219831904Y-62884761D01*
X219927142Y-62837142D01*
X219974761Y-62789523D01*
X220022380Y-62694285D01*
X220022380Y-62503809D01*
X219974761Y-62408571D01*
X219927142Y-62360952D01*
X219831904Y-62313333D01*
X219641428Y-62313333D01*
X219546190Y-62360952D01*
X219498571Y-62408571D01*
X219450952Y-62503809D01*
%TO.C,J4*%
X251952380Y-53583333D02*
X252666666Y-53583333D01*
X252809523Y-53630952D01*
X252904761Y-53726190D01*
X252952380Y-53869047D01*
X252952380Y-53964285D01*
X252285714Y-52678571D02*
X252952380Y-52678571D01*
X251904761Y-52916666D02*
X252619047Y-53154761D01*
X252619047Y-52535714D01*
%TO.C,J1*%
X250452380Y-67833333D02*
X251166666Y-67833333D01*
X251309523Y-67880952D01*
X251404761Y-67976190D01*
X251452380Y-68119047D01*
X251452380Y-68214285D01*
X251452380Y-66833333D02*
X251452380Y-67404761D01*
X251452380Y-67119047D02*
X250452380Y-67119047D01*
X250595238Y-67214285D01*
X250690476Y-67309523D01*
X250738095Y-67404761D01*
%TO.C,F2*%
X244166666Y-40178571D02*
X243833333Y-40178571D01*
X243833333Y-40702380D02*
X243833333Y-39702380D01*
X244309523Y-39702380D01*
X244642857Y-39797619D02*
X244690476Y-39750000D01*
X244785714Y-39702380D01*
X245023809Y-39702380D01*
X245119047Y-39750000D01*
X245166666Y-39797619D01*
X245214285Y-39892857D01*
X245214285Y-39988095D01*
X245166666Y-40130952D01*
X244595238Y-40702380D01*
X245214285Y-40702380D01*
%TO.C,F1*%
X216708571Y-34983333D02*
X216708571Y-35316666D01*
X217232380Y-35316666D02*
X216232380Y-35316666D01*
X216232380Y-34840476D01*
X217232380Y-33935714D02*
X217232380Y-34507142D01*
X217232380Y-34221428D02*
X216232380Y-34221428D01*
X216375238Y-34316666D01*
X216470476Y-34411904D01*
X216518095Y-34507142D01*
%TO.C,D5*%
X239552380Y-59818095D02*
X238552380Y-59818095D01*
X238552380Y-59580000D01*
X238600000Y-59437142D01*
X238695238Y-59341904D01*
X238790476Y-59294285D01*
X238980952Y-59246666D01*
X239123809Y-59246666D01*
X239314285Y-59294285D01*
X239409523Y-59341904D01*
X239504761Y-59437142D01*
X239552380Y-59580000D01*
X239552380Y-59818095D01*
X238552380Y-58341904D02*
X238552380Y-58818095D01*
X239028571Y-58865714D01*
X238980952Y-58818095D01*
X238933333Y-58722857D01*
X238933333Y-58484761D01*
X238980952Y-58389523D01*
X239028571Y-58341904D01*
X239123809Y-58294285D01*
X239361904Y-58294285D01*
X239457142Y-58341904D01*
X239504761Y-58389523D01*
X239552380Y-58484761D01*
X239552380Y-58722857D01*
X239504761Y-58818095D01*
X239457142Y-58865714D01*
%TO.C,D4*%
X228261904Y-36952380D02*
X228261904Y-35952380D01*
X228500000Y-35952380D01*
X228642857Y-36000000D01*
X228738095Y-36095238D01*
X228785714Y-36190476D01*
X228833333Y-36380952D01*
X228833333Y-36523809D01*
X228785714Y-36714285D01*
X228738095Y-36809523D01*
X228642857Y-36904761D01*
X228500000Y-36952380D01*
X228261904Y-36952380D01*
X229690476Y-36285714D02*
X229690476Y-36952380D01*
X229452380Y-35904761D02*
X229214285Y-36619047D01*
X229833333Y-36619047D01*
%TO.C,D2*%
X251281904Y-115242380D02*
X251281904Y-114242380D01*
X251520000Y-114242380D01*
X251662857Y-114290000D01*
X251758095Y-114385238D01*
X251805714Y-114480476D01*
X251853333Y-114670952D01*
X251853333Y-114813809D01*
X251805714Y-115004285D01*
X251758095Y-115099523D01*
X251662857Y-115194761D01*
X251520000Y-115242380D01*
X251281904Y-115242380D01*
X252234285Y-114337619D02*
X252281904Y-114290000D01*
X252377142Y-114242380D01*
X252615238Y-114242380D01*
X252710476Y-114290000D01*
X252758095Y-114337619D01*
X252805714Y-114432857D01*
X252805714Y-114528095D01*
X252758095Y-114670952D01*
X252186666Y-115242380D01*
X252805714Y-115242380D01*
%TO.C,D1*%
X256531904Y-115242380D02*
X256531904Y-114242380D01*
X256770000Y-114242380D01*
X256912857Y-114290000D01*
X257008095Y-114385238D01*
X257055714Y-114480476D01*
X257103333Y-114670952D01*
X257103333Y-114813809D01*
X257055714Y-115004285D01*
X257008095Y-115099523D01*
X256912857Y-115194761D01*
X256770000Y-115242380D01*
X256531904Y-115242380D01*
X258055714Y-115242380D02*
X257484285Y-115242380D01*
X257770000Y-115242380D02*
X257770000Y-114242380D01*
X257674761Y-114385238D01*
X257579523Y-114480476D01*
X257484285Y-114528095D01*
%TO.C,C3*%
X219333333Y-34007142D02*
X219285714Y-34054761D01*
X219142857Y-34102380D01*
X219047619Y-34102380D01*
X218904761Y-34054761D01*
X218809523Y-33959523D01*
X218761904Y-33864285D01*
X218714285Y-33673809D01*
X218714285Y-33530952D01*
X218761904Y-33340476D01*
X218809523Y-33245238D01*
X218904761Y-33150000D01*
X219047619Y-33102380D01*
X219142857Y-33102380D01*
X219285714Y-33150000D01*
X219333333Y-33197619D01*
X219666666Y-33102380D02*
X220285714Y-33102380D01*
X219952380Y-33483333D01*
X220095238Y-33483333D01*
X220190476Y-33530952D01*
X220238095Y-33578571D01*
X220285714Y-33673809D01*
X220285714Y-33911904D01*
X220238095Y-34007142D01*
X220190476Y-34054761D01*
X220095238Y-34102380D01*
X219809523Y-34102380D01*
X219714285Y-34054761D01*
X219666666Y-34007142D01*
%TO.C,C2*%
X221857142Y-26166666D02*
X221904761Y-26214285D01*
X221952380Y-26357142D01*
X221952380Y-26452380D01*
X221904761Y-26595238D01*
X221809523Y-26690476D01*
X221714285Y-26738095D01*
X221523809Y-26785714D01*
X221380952Y-26785714D01*
X221190476Y-26738095D01*
X221095238Y-26690476D01*
X221000000Y-26595238D01*
X220952380Y-26452380D01*
X220952380Y-26357142D01*
X221000000Y-26214285D01*
X221047619Y-26166666D01*
X221047619Y-25785714D02*
X221000000Y-25738095D01*
X220952380Y-25642857D01*
X220952380Y-25404761D01*
X221000000Y-25309523D01*
X221047619Y-25261904D01*
X221142857Y-25214285D01*
X221238095Y-25214285D01*
X221380952Y-25261904D01*
X221952380Y-25833333D01*
X221952380Y-25214285D01*
%TO.C,J3*%
X204666666Y-27202380D02*
X204666666Y-27916666D01*
X204619047Y-28059523D01*
X204523809Y-28154761D01*
X204380952Y-28202380D01*
X204285714Y-28202380D01*
X205047619Y-27202380D02*
X205666666Y-27202380D01*
X205333333Y-27583333D01*
X205476190Y-27583333D01*
X205571428Y-27630952D01*
X205619047Y-27678571D01*
X205666666Y-27773809D01*
X205666666Y-28011904D01*
X205619047Y-28107142D01*
X205571428Y-28154761D01*
X205476190Y-28202380D01*
X205190476Y-28202380D01*
X205095238Y-28154761D01*
X205047619Y-28107142D01*
%TO.C,J6*%
X226666666Y-23102380D02*
X226666666Y-23816666D01*
X226619047Y-23959523D01*
X226523809Y-24054761D01*
X226380952Y-24102380D01*
X226285714Y-24102380D01*
X227571428Y-23102380D02*
X227380952Y-23102380D01*
X227285714Y-23150000D01*
X227238095Y-23197619D01*
X227142857Y-23340476D01*
X227095238Y-23530952D01*
X227095238Y-23911904D01*
X227142857Y-24007142D01*
X227190476Y-24054761D01*
X227285714Y-24102380D01*
X227476190Y-24102380D01*
X227571428Y-24054761D01*
X227619047Y-24007142D01*
X227666666Y-23911904D01*
X227666666Y-23673809D01*
X227619047Y-23578571D01*
X227571428Y-23530952D01*
X227476190Y-23483333D01*
X227285714Y-23483333D01*
X227190476Y-23530952D01*
X227142857Y-23578571D01*
X227095238Y-23673809D01*
%TO.C,J11*%
X254940476Y-33452380D02*
X254940476Y-34166666D01*
X254892857Y-34309523D01*
X254797619Y-34404761D01*
X254654761Y-34452380D01*
X254559523Y-34452380D01*
X255940476Y-34452380D02*
X255369047Y-34452380D01*
X255654761Y-34452380D02*
X255654761Y-33452380D01*
X255559523Y-33595238D01*
X255464285Y-33690476D01*
X255369047Y-33738095D01*
X256892857Y-34452380D02*
X256321428Y-34452380D01*
X256607142Y-34452380D02*
X256607142Y-33452380D01*
X256511904Y-33595238D01*
X256416666Y-33690476D01*
X256321428Y-33738095D01*
%TO.C,R2*%
X257452380Y-112416666D02*
X256976190Y-112750000D01*
X257452380Y-112988095D02*
X256452380Y-112988095D01*
X256452380Y-112607142D01*
X256500000Y-112511904D01*
X256547619Y-112464285D01*
X256642857Y-112416666D01*
X256785714Y-112416666D01*
X256880952Y-112464285D01*
X256928571Y-112511904D01*
X256976190Y-112607142D01*
X256976190Y-112988095D01*
X256547619Y-112035714D02*
X256500000Y-111988095D01*
X256452380Y-111892857D01*
X256452380Y-111654761D01*
X256500000Y-111559523D01*
X256547619Y-111511904D01*
X256642857Y-111464285D01*
X256738095Y-111464285D01*
X256880952Y-111511904D01*
X257452380Y-112083333D01*
X257452380Y-111464285D01*
%TO.C,R3*%
X224452380Y-27666666D02*
X223976190Y-28000000D01*
X224452380Y-28238095D02*
X223452380Y-28238095D01*
X223452380Y-27857142D01*
X223500000Y-27761904D01*
X223547619Y-27714285D01*
X223642857Y-27666666D01*
X223785714Y-27666666D01*
X223880952Y-27714285D01*
X223928571Y-27761904D01*
X223976190Y-27857142D01*
X223976190Y-28238095D01*
X223452380Y-27333333D02*
X223452380Y-26714285D01*
X223833333Y-27047619D01*
X223833333Y-26904761D01*
X223880952Y-26809523D01*
X223928571Y-26761904D01*
X224023809Y-26714285D01*
X224261904Y-26714285D01*
X224357142Y-26761904D01*
X224404761Y-26809523D01*
X224452380Y-26904761D01*
X224452380Y-27190476D01*
X224404761Y-27285714D01*
X224357142Y-27333333D01*
%TO.C,R4*%
X226702380Y-27666666D02*
X226226190Y-28000000D01*
X226702380Y-28238095D02*
X225702380Y-28238095D01*
X225702380Y-27857142D01*
X225750000Y-27761904D01*
X225797619Y-27714285D01*
X225892857Y-27666666D01*
X226035714Y-27666666D01*
X226130952Y-27714285D01*
X226178571Y-27761904D01*
X226226190Y-27857142D01*
X226226190Y-28238095D01*
X226035714Y-26809523D02*
X226702380Y-26809523D01*
X225654761Y-27047619D02*
X226369047Y-27285714D01*
X226369047Y-26666666D01*
%TO.C,R5*%
X251952380Y-112416666D02*
X251476190Y-112750000D01*
X251952380Y-112988095D02*
X250952380Y-112988095D01*
X250952380Y-112607142D01*
X251000000Y-112511904D01*
X251047619Y-112464285D01*
X251142857Y-112416666D01*
X251285714Y-112416666D01*
X251380952Y-112464285D01*
X251428571Y-112511904D01*
X251476190Y-112607142D01*
X251476190Y-112988095D01*
X250952380Y-111511904D02*
X250952380Y-111988095D01*
X251428571Y-112035714D01*
X251380952Y-111988095D01*
X251333333Y-111892857D01*
X251333333Y-111654761D01*
X251380952Y-111559523D01*
X251428571Y-111511904D01*
X251523809Y-111464285D01*
X251761904Y-111464285D01*
X251857142Y-111511904D01*
X251904761Y-111559523D01*
X251952380Y-111654761D01*
X251952380Y-111892857D01*
X251904761Y-111988095D01*
X251857142Y-112035714D01*
%TO.C,R6*%
X255583333Y-37702380D02*
X255250000Y-37226190D01*
X255011904Y-37702380D02*
X255011904Y-36702380D01*
X255392857Y-36702380D01*
X255488095Y-36750000D01*
X255535714Y-36797619D01*
X255583333Y-36892857D01*
X255583333Y-37035714D01*
X255535714Y-37130952D01*
X255488095Y-37178571D01*
X255392857Y-37226190D01*
X255011904Y-37226190D01*
X256440476Y-36702380D02*
X256250000Y-36702380D01*
X256154761Y-36750000D01*
X256107142Y-36797619D01*
X256011904Y-36940476D01*
X255964285Y-37130952D01*
X255964285Y-37511904D01*
X256011904Y-37607142D01*
X256059523Y-37654761D01*
X256154761Y-37702380D01*
X256345238Y-37702380D01*
X256440476Y-37654761D01*
X256488095Y-37607142D01*
X256535714Y-37511904D01*
X256535714Y-37273809D01*
X256488095Y-37178571D01*
X256440476Y-37130952D01*
X256345238Y-37083333D01*
X256154761Y-37083333D01*
X256059523Y-37130952D01*
X256011904Y-37178571D01*
X255964285Y-37273809D01*
%TO.C,R7*%
X255583333Y-39702380D02*
X255250000Y-39226190D01*
X255011904Y-39702380D02*
X255011904Y-38702380D01*
X255392857Y-38702380D01*
X255488095Y-38750000D01*
X255535714Y-38797619D01*
X255583333Y-38892857D01*
X255583333Y-39035714D01*
X255535714Y-39130952D01*
X255488095Y-39178571D01*
X255392857Y-39226190D01*
X255011904Y-39226190D01*
X255916666Y-38702380D02*
X256583333Y-38702380D01*
X256154761Y-39702380D01*
%TO.C,R9*%
X217652380Y-46916666D02*
X217176190Y-47250000D01*
X217652380Y-47488095D02*
X216652380Y-47488095D01*
X216652380Y-47107142D01*
X216700000Y-47011904D01*
X216747619Y-46964285D01*
X216842857Y-46916666D01*
X216985714Y-46916666D01*
X217080952Y-46964285D01*
X217128571Y-47011904D01*
X217176190Y-47107142D01*
X217176190Y-47488095D01*
X217652380Y-46440476D02*
X217652380Y-46250000D01*
X217604761Y-46154761D01*
X217557142Y-46107142D01*
X217414285Y-46011904D01*
X217223809Y-45964285D01*
X216842857Y-45964285D01*
X216747619Y-46011904D01*
X216700000Y-46059523D01*
X216652380Y-46154761D01*
X216652380Y-46345238D01*
X216700000Y-46440476D01*
X216747619Y-46488095D01*
X216842857Y-46535714D01*
X217080952Y-46535714D01*
X217176190Y-46488095D01*
X217223809Y-46440476D01*
X217271428Y-46345238D01*
X217271428Y-46154761D01*
X217223809Y-46059523D01*
X217176190Y-46011904D01*
X217080952Y-45964285D01*
%TO.C,R10*%
X216357142Y-68052380D02*
X216023809Y-67576190D01*
X215785714Y-68052380D02*
X215785714Y-67052380D01*
X216166666Y-67052380D01*
X216261904Y-67100000D01*
X216309523Y-67147619D01*
X216357142Y-67242857D01*
X216357142Y-67385714D01*
X216309523Y-67480952D01*
X216261904Y-67528571D01*
X216166666Y-67576190D01*
X215785714Y-67576190D01*
X217309523Y-68052380D02*
X216738095Y-68052380D01*
X217023809Y-68052380D02*
X217023809Y-67052380D01*
X216928571Y-67195238D01*
X216833333Y-67290476D01*
X216738095Y-67338095D01*
X217928571Y-67052380D02*
X218023809Y-67052380D01*
X218119047Y-67100000D01*
X218166666Y-67147619D01*
X218214285Y-67242857D01*
X218261904Y-67433333D01*
X218261904Y-67671428D01*
X218214285Y-67861904D01*
X218166666Y-67957142D01*
X218119047Y-68004761D01*
X218023809Y-68052380D01*
X217928571Y-68052380D01*
X217833333Y-68004761D01*
X217785714Y-67957142D01*
X217738095Y-67861904D01*
X217690476Y-67671428D01*
X217690476Y-67433333D01*
X217738095Y-67242857D01*
X217785714Y-67147619D01*
X217833333Y-67100000D01*
X217928571Y-67052380D01*
%TO.C,R11*%
X237102380Y-69892857D02*
X236626190Y-70226190D01*
X237102380Y-70464285D02*
X236102380Y-70464285D01*
X236102380Y-70083333D01*
X236150000Y-69988095D01*
X236197619Y-69940476D01*
X236292857Y-69892857D01*
X236435714Y-69892857D01*
X236530952Y-69940476D01*
X236578571Y-69988095D01*
X236626190Y-70083333D01*
X236626190Y-70464285D01*
X237102380Y-68940476D02*
X237102380Y-69511904D01*
X237102380Y-69226190D02*
X236102380Y-69226190D01*
X236245238Y-69321428D01*
X236340476Y-69416666D01*
X236388095Y-69511904D01*
X237102380Y-67988095D02*
X237102380Y-68559523D01*
X237102380Y-68273809D02*
X236102380Y-68273809D01*
X236245238Y-68369047D01*
X236340476Y-68464285D01*
X236388095Y-68559523D01*
%TO.C,R12*%
X240602380Y-69892857D02*
X240126190Y-70226190D01*
X240602380Y-70464285D02*
X239602380Y-70464285D01*
X239602380Y-70083333D01*
X239650000Y-69988095D01*
X239697619Y-69940476D01*
X239792857Y-69892857D01*
X239935714Y-69892857D01*
X240030952Y-69940476D01*
X240078571Y-69988095D01*
X240126190Y-70083333D01*
X240126190Y-70464285D01*
X240602380Y-68940476D02*
X240602380Y-69511904D01*
X240602380Y-69226190D02*
X239602380Y-69226190D01*
X239745238Y-69321428D01*
X239840476Y-69416666D01*
X239888095Y-69511904D01*
X239697619Y-68559523D02*
X239650000Y-68511904D01*
X239602380Y-68416666D01*
X239602380Y-68178571D01*
X239650000Y-68083333D01*
X239697619Y-68035714D01*
X239792857Y-67988095D01*
X239888095Y-67988095D01*
X240030952Y-68035714D01*
X240602380Y-68607142D01*
X240602380Y-67988095D01*
%TO.C,R13*%
X244652380Y-57792857D02*
X244176190Y-58126190D01*
X244652380Y-58364285D02*
X243652380Y-58364285D01*
X243652380Y-57983333D01*
X243700000Y-57888095D01*
X243747619Y-57840476D01*
X243842857Y-57792857D01*
X243985714Y-57792857D01*
X244080952Y-57840476D01*
X244128571Y-57888095D01*
X244176190Y-57983333D01*
X244176190Y-58364285D01*
X244652380Y-56840476D02*
X244652380Y-57411904D01*
X244652380Y-57126190D02*
X243652380Y-57126190D01*
X243795238Y-57221428D01*
X243890476Y-57316666D01*
X243938095Y-57411904D01*
X243652380Y-56507142D02*
X243652380Y-55888095D01*
X244033333Y-56221428D01*
X244033333Y-56078571D01*
X244080952Y-55983333D01*
X244128571Y-55935714D01*
X244223809Y-55888095D01*
X244461904Y-55888095D01*
X244557142Y-55935714D01*
X244604761Y-55983333D01*
X244652380Y-56078571D01*
X244652380Y-56364285D01*
X244604761Y-56459523D01*
X244557142Y-56507142D01*
%TO.C,R14*%
X244652380Y-60992857D02*
X244176190Y-61326190D01*
X244652380Y-61564285D02*
X243652380Y-61564285D01*
X243652380Y-61183333D01*
X243700000Y-61088095D01*
X243747619Y-61040476D01*
X243842857Y-60992857D01*
X243985714Y-60992857D01*
X244080952Y-61040476D01*
X244128571Y-61088095D01*
X244176190Y-61183333D01*
X244176190Y-61564285D01*
X244652380Y-60040476D02*
X244652380Y-60611904D01*
X244652380Y-60326190D02*
X243652380Y-60326190D01*
X243795238Y-60421428D01*
X243890476Y-60516666D01*
X243938095Y-60611904D01*
X243985714Y-59183333D02*
X244652380Y-59183333D01*
X243604761Y-59421428D02*
X244319047Y-59659523D01*
X244319047Y-59040476D01*
%TD*%
M02*
